<?xml version="1.0" encoding="UTF-8"?>
<svg id="Layer_1" xmlns="http://www.w3.org/2000/svg" version="1.1" viewBox="0 0 1227.12 279.28">
  <!-- Generator: Adobe Illustrator 30.0.0, SVG Export Plug-In . SVG Version: 2.1.1 Build 123)  -->
  <path d="M739.57,209.09c2.69-.42,13.39.67,13.94-.04.82-1.07-1.2-7.99,3.06-9.92,3.54.04,4.73,14.69,1.12,17.1-2.88,1.92-25.09,2.23-25.95-2.28-.14-.74,2.35-14.13,2.79-14.88,2-3.38,13.49-7.72,16.15-15.85,6.03-18.4-5.32-40.12-25.91-38.03-18.38,1.86-26.42,24.99-18.76,40.47,3.47,7.01,12.08,9.25,14.5,13.5,1.35,2.38,3.63,12.18,2.91,14.7-1.34,4.7-23.07,4.32-25.98,2.37-3.6-2.4-2.42-17.06,1.12-17.1,4.26,1.93,2.23,8.85,3.06,9.92.53.69,11.24-.34,13.95.04,1.8-7.64-6.23-7.37-10.85-12.16-15.75-16.33-11.4-46.37,9.47-56.2,34.31-16.16,60.54,29.25,37.36,55.37-4.18,4.71-11.81,6.43-11.99,13Z"/>
  <path d="M335.58,175.09c7.95-4.18,4.41-21.81,15.98-19.99-.71,16.65-17.78,36.15-6.17,52.74,1.34,1.91,4.18,1.27,6.07,2.28,7.43,3.97-5.09,11.21-11.95,4.02-2.92-3.07-.96-8.41-4.95-11.02-25.12,34.54-53.38.91-42.02-32.05,8.45-24.54,38.66-20.49,43.04,4.02ZM313,161.39c-20.52,3.67-20.2,49.13,1.58,47.9,9.02-.51,17.4-14.52,17.1-23.14-.28-8.23-8.99-26.5-18.69-24.76Z"/>
  <path d="M461.57,139.1l21.95,68.62c19.86,7.85-2.93,11.23-12.98,9.4-6-1.09-6.42-7.72-3.96-8.03,2.97-.37,10.05,2.2,8.81-2.79l-20.83-57.19-18.81,57.19c-1.23,4.99,5.84,2.42,8.81,2.79,1.72.21,1.34,3.78,1,5-1.31,4.57-22.66,4.58-23.98,0-2.21-7.69,4.27-3.32,6.18-6.14l19.79-59.87c-6.71-2.45-17.59,2.47-15.98-8.98h30Z"/>
  <path d="M1021.58,177.09l6.07-12.91c2.8-7.37-.64-10.65,9.9-9.07-1.65,19.34-18.16,31.03-7.69,50.69,1.66,3.12,15.15,5.89,7.76,10.36-8.69,5.25-16.84-4.93-16.07-13.05-7.75,4.87-10.73,13.39-20.98,14.11-32.53,2.31-33.53-59.63-4.04-62.19,16.6-1.44,20.65,8.2,25.05,22.07ZM998.93,161.56c-20.02.94-22.32,48.98,1.66,47.72,8.58-.45,17.05-15.16,17.05-23.18,0-7.95-10.07-24.94-18.71-24.53Z"/>
  <path d="M883.58,175.09c6.34-1.84,6.08-17.3,8.16-19.83.66-.8,5.83.14,7.82-.16,2.69,2.67-11.65,31.4-11.49,36.6.06,1.98,3.47,14.18,4.49,15.4,1.44,1.73,19.51,8.45,1.81,9.99-7.23.63-10.88-7.8-10.82-14-14.61,17.24-34.91,21.84-43.52-3.47-12.94-38.04,28.61-66.76,43.55-24.54ZM870.92,165.74c-15.29-15.27-27.22,8.41-25.21,24.21,2.29,17.96,16.57,28.25,28.74,11.03,7.58-10.72,5.87-25.85-3.53-35.24Z"/>
  <path d="M781.57,207.1v33c0,3.45-8,3.45-8,0v-60c0-2.51,5.73-15.67,7.94-18.06,9.73-10.5,31.4-10.28,39.74,2.38,19.93,30.26-8.73,72.59-39.68,42.68ZM799.05,161.48c-21.89,2.44-22.51,42.55-2.09,47.21,31.25,7.13,28.89-50.2,2.09-47.21Z"/>
  <path d="M279.57,139.1v28c-11.98,1.6-7.23-12.2-7.99-20.01h-18.01v62.01c4.59.51,10.49-.94,14.79.21,2.27.61,4.29,3.12,1.24,4.81-1.94,1.08-23.13,3.13-27.06,3.09s-8.05-.31-11.78-1.98c-2.05-.92-1.43-5.92-1.19-6.13.99-.84,12.93.58,16.01,0v-62h-18.01s0,20.01,0,20.01h-7.99v-28.01h60Z"/>
  <path d="M619.56,155.11v21.99c-10.14,2.12-6.11-8.07-10.85-12.13-6.67-5.71-18.5-3.74-25.1,1.17-9.06,6.75-10.99,25.91-4.95,34.88,7.99,11.84,30.53,7.88,32.9,21.11,2.52,14.1-9.05,21.47-21.98,18.97-.87-7.56,10.58-5.82,13.05-9.92,7.65-12.65-10.39-13.15-17.83-16.29-9.32-3.94-15.64-10.47-17.07-20.92-3.23-23.49,10.27-41.97,34.97-38.98,4.04.49,7.08,3.51,7.89,3.52,1.47.01,5.19-5.05,8.99-3.39Z"/>
  <path d="M547.43,172.95c-.17.21-4.6,2.11-4.87,2.13-2.13.15-3.34-8.1-5.82-10.15-6.57-5.4-23.77-5.08-25.23,5.23-2.37,16.72,23.96,6.71,22.05,15.92-1.11,5.34-22.28-.4-24.05,12.08-1.87,13.21,16.8,13.15,26.08,9.97,2.68-.92,5.39-4.21,6.94-4.35,1.37-.13,6.44,1.21,5.02,4.31-6.16,13.45-47.49,14.28-46.17-10,.37-6.82,6.11-9.23,10.18-13.98-13.6-6.07-9.44-26.69,5.09-28.89,7.84-1.19,13.34,1.28,19.91,1.6,3.43.17,8.81-4.5,10.73,1.58.62,1.97.72,13.85.14,14.57Z"/>
  <path d="M939.57,209.1c2.83.54,13.08-.78,14.01,0,.24.2.86,5.21-1.19,6.13-6,2.68-20.82,2.91-20.82-5.13v-55c2.32-.82,8,.9,8,3v51Z"/>
  <path d="M942.86,127.37c2.74-.83,6.74,1.1,6.67,2.72s-21.05,21.35-22.95,20.99c-2.8-.52-2.98-2.31-.99-4.95,3.06-4.06,13.32-17.57,17.27-18.77Z"/>
  <g>
    <g>
      <rect x="52.64" y="163.93" width="1.33" height="90.05" transform="translate(-74.82 35.5) rotate(-22.14)"/>
      <path d="M76.53,265.19l-2.75-5.14c-.66-1.66-1.45-3.25-1.59-5.07l1.94,3.37c.77,2.29,2.11,4.41,2.41,6.83Z"/>
      <rect x="97.89" y="206.57" width="76.88" height="1.33" transform="translate(-72.09 341.74) rotate(-89.5)"/>
      <path d="M137.21,163.35c-.79.13-.93.49-.94-.44-.03-2.54-.08-5.89.16-8.36.06-.66-.11-1.44.69-1.74l.1,10.54Z"/>
      <rect x="91.12" y="268.97" width="36.77" height=".96" transform="translate(-48.67 25.37) rotate(-10.83)"/>
    </g>
    <g>
      <path d="M103.9,12.39c.3.21,2.91,3.82,3.25,4.42,2.57,4.52,0,7.3-.17,11.8-.04,1.15-.18,1.78,1.39,1.54.23-1.03,1.17-4.64,1.74-5.16,1.13-1.01,5.27-2.08,6.87-1.87,1.05.14,5.91,1.83,6.3,2.58,1.85,3.55-3.06,10.97-2.23,12.73,7.62,5.64,14.89,13.02,17.99,22.22s2.04,21.95,1.69,31.96c-.41,11.78-1.49,23.54-2.03,35.32.33,2.34,3.88,4.54,3.65,7.28l-1.35,131.25c-.2.93-3.37,1.82-4.53,2.16-16.15,4.8-35.59,8.21-52.32,10-1.38.15-7.15,1.3-7.89.21l-49.79-122.44c-.69-2.65,1.8-4.8.77-8.2-2.04-6.73-7.24-15.56-10.24-22.32-4.56-10.28-13.1-26.68-14.11-37.39-.7-7.46,2.39-15.9,5.19-22.67L.76,53.64c-1.58-3.7-.65-4.5,2.39-6.48,4.64-3.03,6.12-1.98,10.99-.17l3.48,4.35c1.38-1.03-1.37-6.49-1.78-8.05-1.27-4.86-1.38-7.48.65-12.06,1.61-3.63,4.32-5.07,8.26-5.23s3.43,5.43,4.94,8.15L52.99,0l40.79,22.85c.62.02.79-.5.92-.98.61-2.33.2-6.04,2.27-7.73,1.2-.98,5.59-2.68,6.93-1.75ZM94.07,25.68c-.02-.92-.85-1.22-1.51-1.62-4.63-2.84-9.71-5.12-14.44-7.81-7.38-4.19-15.29-9.67-22.73-13.4-.52-.26-1.43-.75-1.96-.53l-22.91,33.6.25,2.59,6.18,19.69c.8-.05.21-1.73.08-2.19-.27-.97-.8-1.8-1.02-2.66-.41-1.68-.57-3.42-.97-5.1-.28-1.2-.98-2.14-1.21-3.62s-.56-6.65-.26-7.84c.24-.91,1.67-2.07,2.54-2.33,2.87-.89,5.4,4.09,7.82,5.14.21-3.01-1.05-5.91-.36-8.91.33-1.45,2.84-5.79,4.11-6.48s7.43-1.33,8.38-.4c1.37,1.34,1.05,8.62,1.79,10.72l1.04-5.93c1.03-2.66,4.48-.55,5.86.8,1.6,1.56,1.93,3.56,3.4,5.08,4.93-9.24,16.34-13.32,25.91-8.79ZM25.81,27.71c-5.43-.05-7.09,2.07-8.52,6.88-.95,3.23-1.38,3.63,2.43,3.87.12.76-1.15.94-1.17,1.5-.08,2.11,1.44,4.48,1.75,6.55-.97-.02-.97-.79-1.23-1.44-.62-1.57-1-3.38-1.44-5.01-.24-.91.12-1.42-1.14-.97l7.34,22.71c.79,1.47,1.35,3.06,2.18,4.51.27.48.59,1.63,1.24,1.43-1.32-3.97-2.99-7.91-4.2-11.91-.14-.48-.65-1.69.15-1.71l7.14,19.75c.79-.13,1.06.06.77-.84-1.04-3.29-3.11-6.58-3.36-10.19l1.3,2.54c.55,1.16,2.4,7.76,3.28,7.62.33-.05.72-1.29.41-1.74-2.89-8.41-6.55-16.68-9.11-25.19-1.52-5.04-2.27-7.37-.79-12.54.5-1.74,1.31-3.78,2.38-5.23l-2.27,9.33c1.92,11.86,7.05,22.83,10.83,34.15l5.29-2.45-6.24-17.81-7.01-23.8ZM101.94,14.1c-.32-.21-4.04,1.37-4.42,2.13l-3.81,20.08c1.43-.18,2.82.52,4.15.73.5.08.61.6.98-.27l3.1-22.67ZM103.77,38.71c.45-6.05,1.77-12.08,2.77-18.08.47-1.09-2.85-5.9-3.26-5.83l-3.6,22.53c.84.71.82.15.87-.61.13-1.65.1-4.16,1.34-5.34.14,1.95-.8,4.25-.75,6.14.03.99.52.82.75.1.76-2.31.75-5.57,1.21-8.04.12-.66.19-2.2.86-2.44.53,3.59-1.06,7.58-1.17,11.09-.03.94.26.6.98.46ZM54.14,25.16c-1.9.08-4.7-.22-6.19,1.23-.18.18-2.22,3.71-2.33,4.06-.64,1.92.03,9.85.77,11.78.38.98,1.88,2.3,2.46,3.5,2.82,5.86,3.53,13.52,5.8,19.65l2.14-23.32c-.74-5.21-.81-10.46-1.91-15.59l-3.04,6.59c1.26,9.64,2.04,19.29,2.65,29-.78.26-.65-.97-.77-1.53-.23-1.07-.48-2.17-.63-3.25-.33-2.49-.3-5.52-.57-8.04-.56-5.32-1.28-10.62-1.59-15.96-.3-.81-5.19-.22-5.25-2.18.39-.51,4.05,1.37,4.95.74,1.38-.97,2.47-5.15,3.51-6.67ZM60.52,68.58c-.07-1.66-.07-3.35.04-5.01.68-9.72,2.45-23.35,1.03-32.74-.11-.7.55-1.18-.7-1.67-.61.58-.45,1.31-.58,2.02-2.27,12.05-2.74,24.54-3.75,36.69l3.95.72ZM61.64,56.84c1.25-1.6,1.79-3.79,2.78-5.56,1.92-3.43,3.69-3.69,3.21-8.3s-1.58-10.05-5.16-13.17c1.63,9.15-.1,17.95-.82,27.04ZM93.5,27.71c-3.38-2.45-8.6-2.51-12.52-1.44-5.59,1.53-12.75,7.41-11.99,13.81l1.66-3.91c3.39-6.29,9.73-9.9,16.92-9.5,2.03.11,3.93.89,5.94,1.04ZM53.04,67.13c-2.75-8.61-2.99-18.2-9.39-25.04-1.46-1.57-3.99-4.06-5.62-5.38-1.27-1.03-2.51-.61-1.94,1.04,1.64,4.75,4.15,9.64,5.88,14.52s3.03,10.11,4.91,15.03l6.16-.17ZM92.23,36.12c-.14-2.06.6-4.09.87-6.1.19-1.45-2.38-1.92-3.54-2.12-3.07-.54-6.57-.11-9.45,1-6.24,2.41-10.41,8.85-10.78,15.44.34.21,4.8-3.43,5.71-3.98,5.11-3.09,11.24-4.79,17.2-4.24ZM45,67.71c.92-.44.63-.81.46-1.52-.72-3-2.2-7.11-3.22-10.14-1.49-4.39-3.25-9.06-5.04-13.34-.36-.85-.68-1.74-1.08-2.57-.24-.51-.27-1.51-.95-1.26.55,2.47.28,4.78.89,7.29.74,3.04,2.08,6.49,2.81,9.51.83,3.46,1.08,8.48,2.22,11.57.19.52.51,1.03,1.14.99-.29-3.89-1.99-7.55-2.63-11.26-.1-.56-.67-1.66.15-1.7.65,2.44,1.75,5.05,2.39,7.46.25.93.8,5.16,1.02,5.33.65.52.89-.11.79-.86-.27-2.1-1.3-3.66-1.57-5.71,1.8.91,1.8,4.43,2.63,6.22ZM121.16,26.74c-.7-1.47-8.7-2.61-8.26-.58,1.4.14,3.21,2.71,4.18,2.72.88,0,2.96-1.97,4.09-2.14ZM111.09,26.75c-1,4.64-3.1,9.1-4.53,13.67.02.55,4.24,3.47,4.88,4.5l4.66-14.6c.12-1.18-4.46-4.53-5.01-3.56ZM1.78,50.06c2.01,1.46,5.09,1.26,7.43,2.43l3.35-3.78c-4.16-3-7.03-1.15-10.78,1.35ZM115.5,49.9l6.29-22.32-4.5,2.78-4.65,14.57c.14,1.36.66.3.84-.24.54-1.58.74-3.64,2.01-4.88.31,2.17-2.06,5.55-1.96,7.33.05.93.32.71,1.06.52.71-3.39,1.38-7.33,3.32-10.23-.3,3.78-2.34,7.43-2.94,11.1-.08.48-.33,1.62.52,1.36ZM24.54,81.22l-.66-2.28-14.88-24.96c-.68-.94-6.62-2.42-6.86-2.06,6.04,11.17,13.01,21.82,19.46,32.76.59.5,1.01.58.66-.38-1.28-3.5-4.81-6.88-5.88-10.63l4.24,5.91c.47.72,1.59,3.23,1.87,3.48.12.1,1.14.15.74-.79-.89-2.04-2.7-3.76-3.46-5.89,1.21-.49,3.88,6.46,4.76,4.85ZM14.17,49.61c-.51-.36-3.94,2.9-4.09,3.26s.03.71.14,1.04l15.22,25.7c.52-1.37,3.83-3.59,3.65-4.75l-14.92-25.25ZM107.25,31.8c-1.38,0-.67.49-.84,1.22-.21.93-.61,1.85-.3,2.83.55-.12.72-1.49.85-2.04.15-.63.76-1.14.29-2.02ZM116.46,57.4c-4.9-16.75-23.54-24.33-38.98-16.19-10.12,5.33-16.88,17.43-14.75,28.87,1.35-.81.31-2.44.31-3.62.01-26.69,36.02-38.1,49.74-15.21,1.2,1.99,1.72,4.95,3.68,6.15ZM114.34,56.36c-6.62-17.16-27.02-21.63-41.11-9.98-6.58,5.44-9.61,14.09-9.29,22.5.27.16,2.69-1.37,3.01-1.78.98-1.24-.06-2.76,2.93-3.45,1.56-.36,10.86,1.63,11.32,2.66.59,1.34-1.85,2.31-3.02,1.77l1.7,3.42c2.43.7,1.56.14,2.09-1.45,1.78-5.27,5.02-8.4,9.19-11.9-3.44.83-.69-6.16-3.86-5.06-1.42.49-6.59,3.69-6.97,4.97-.91,3.05,4.05,3.62,3.19,6.6-2.1.56-11.59-3.86-12.63-5.72-1.79-3.18,1.53-6.35,3.8-8.34,3.53-3.09,11.65-8.13,16.36-6.53,4.44,1.51.11,10.31.99,13.67,1.9-2.45,4.27-11.13,7.6-11.54s7.28,4.05,8.94,6.46c.46.67,1,2.26,1.31,2.52.45.38,3.59.68,4.44,1.18ZM90.85,56.53c-.12-2.45,2.1-9.39.52-11.15-.97-1.09-5.26-.06-6.62.36-3.15.99-13.64,7.92-13.36,11.47.2,2.5,8.95,5.45,11.03,6.69.45-1.26-1.54-2.03-2.15-2.77-1.23-1.49-1.55-2.98-.11-4.4s7.42-5.99,9.22-4.27l1.46,4.07ZM104.61,125.9c-.81-.59,2.13-3.52,2.63-4.06,4.31-4.67,9.87-8.63,14.38-13.2,11.86-12.02,22.01-30.03,15.72-47.28-3.05-8.37-9.73-16.23-17.18-20.99-.12,1.44-2.06,4.69-1.83,5.87.12.65,2.51,3.18,3.11,4.12,3.07,4.73,5.5,9.79,6.22,15.46l-4.58-10.75-4.7-7.63c-1.46,2.03-2.15,4.73-1.03,7.06.19.4.8.19,1.03.47.6.73,1.63,2.01,2.08,2.77,1.14,1.93,1.54,4.51,3.66,5.88-.12-1.71-1.15-3.42-1.9-4.92-1.27-2.53-2.83-5.32-4.56-7.53.55-1.06.71-.27,1.1.17,2.55,2.92,4.21,6.53,5.62,10.11.42,1.07.4,2.35.83,3.53,1.3,3.57,3.97,6.84,3.94,11.11l1.04-5.93c.29-6.79-2.08-12.84-5.28-18.69,2.25,1.6,4.34,5.3,5.31,7.91,9.69,25.97-21.67,49.33-35.84,67.06-7.66,9.58-13.7,20.64-16.66,32.61-.27,1.11-1.79,8.11-1.62,8.51.27.64,5.79,1.54,6.9,1.73,1.59.27,5.4,1.18,6.62.69,15.79-10.28,32.65-19.24,46.54-32.1l.26-.63c.39-14.13,1.8-28.22,2.33-42.34.11-2.87.36-5.81.01-8.65l-4.64,9.54c-7.45,12.32-18.9,20.79-29.53,30.12ZM108.26,54.65c-1.33-2.92-6.1-8.57-9.59-6.72-.69.37-4.42,7.34-4.51,8.22-.22,2.19,2.42-1.33,2.6-1.46,1.93-1.38,3.36.51,4.6.17.55-.15,1.58-3.07,3.59-2.46l-.02,2.4,3.33-.16ZM14.94,91.21c-.24-1.65-.37-3.58-.31-5.24.11-2.76.99-5.24.97-7.86l-6.11-10.34c-1.18,2.1-2.33,5.08-2.99,7.44-5.25,18.78,3.33,34.93,19.81,44.06,5.01,2.77,10.61,4.43,15.56,7.35-.22.76-1.14.09-1.6-.02-6.44-1.61-15.66-5.53-20.88-9.61l-7.02-6.57,20.66,46.42c12.66,6.45,27.3,7.54,40.94,10.9.46-.1,1.05-4.99,1.26-5.98,1.24-5.81,2.92-11.46,5.59-16.79.06-1.23-3.06-4.1-4.06-5.08-12.86-12.51-27.87-15.98-42.94-23.99-10.46-5.55-23.44-16.77-22.53-29.79.09-1.3.9-3.14.75-4.27-.12-.96-1.89-3.04.03-3.06,1.22,2.42.21,4.88.45,7.35.57,6.1,2.88,11.93,6.91,16.53.33.37.64.94,1.22.87-.63-2.91-1.15-5.57-1.02-8.55.1-2.13,1.51-6.21,1.34-7.58-.1-.82-.36-1.83-1.36-1.91l-.79,5.91c-.97-3,.61-6.07-.3-9.06-.14-.12-.52.34-.61.59-.67,1.78-.3,7.2-.34,9.45-.02.85.73,1.27-.71,1.31.25-2.27-.31-4.43-.2-6.78.05-1.24,1.25-6.08.5-6.71-.86-.71-.88.79-.96,1.14-.61,2.73-.56,5.62-.71,8.4-.03.49.12,1.42-.54,1.44ZM104.2,53.51c-.64-.19-1.47,1.05-1.21,1.19l1.39-.26-.18-.92ZM127.66,78.29l-1.46-7.64c-.99-5.2-9.77-11.87-14.7-13.36-11.42-3.44-24.73,2.54-27.84,14.29.94.83.77-.11.98-.55.87-1.81,1.3-3.5,2.61-5.15,11.04-13.95,35.85-7.61,38.61,10.01l1.8,2.4ZM61.23,72.28c.9-1.53-4.57-2.7-5.5-2.88-21.47-3.98-35.53,18.74-28.03,37.73.19.48,2.55,5.68,3.15,4.56-.97-2.6-2.58-5.08-3.36-7.81-5.95-20.72,13.06-40.93,33.74-31.6ZM79.77,66.34c-2.98.06-6.81-2.19-9.65-1.55-1.59.36-3.04,1.98-1.13,1.69,1.07-.16,2.04-.48,3.16-.5,2.03-.04,4.04,1.01,6.18.99.51,0,1.7.19,1.44-.63ZM124.63,75.03c-4.3-18.41-31.56-21.76-39.12-3.79,2.08.63,2.37-1.85,3.46-3.29,7.6-10.16,24.44-7.9,31.26,2,1.39,2.02,1.73,4.36,4.4,5.09ZM120.23,59.56c-.07-.9-.62-1.58-1.04-2.32-.26-.46-.42-1.35-1.05-1.12.15,1.42.37,3.16,2.09,3.44ZM55.95,84.81c.67-.8-3.95-2.59-5.12-1.68-1.7,1.33.83,3.55.27,5.85-.7,2.88-2.26.11-2.99-1.22-.93-1.68-4.27-8.37-4.42-9.84-.41-4.15,5.76-4.33,8.71-4.19,1.35.06,6.81,1.4,7.14,1.26.53-.23,1.09-2,.56-2.49-.32-.3-3.33-1.09-4.02-1.23-21.76-4.17-35.68,19.87-25.18,38.27,1.17,2.05,2.39,4.04,4.59,5.11.45-.08,1.16-3.52,1.42-4.27.31-.88,2.01-2.45.2-2.25-2.81.3-4.64-1.92-5.41-4.5-1.1-3.67-1.41-7.64-.74-11.4s3.78-13.52,8.99-9.96c1.1.76,7.98,8.63,8.08,9.59.07.71-.82,1.39-1.54,1.29-3.05-.4-5.06-5.94-6.37.45-.37,1.78-.55,4.23-.03,5.96,1.16,3.89,4.29-.8,5.33-.74.57.03.85,1.13,1.02,1.21.24.11,3.81-2.11,4.88-1.86-1.3-5.15-.62-10.9,4.64-13.37ZM89.81,71.13c.18.1,1.47-.51,2.37-.22,1,.33.17,1.08-.47,1.31-2.06.72-8.4,1.51-10.68,1.46-3.1-.07-2.87-3.01-4.62-4.47-1.4-1.17-4.42-1.97-6.21-1.55-2.11.48-6.88,3.97-7.97,5.9-1.56,2.74-.2,6.55-2.03,9.5-1.64,2.65-5.64,3.99-6.89,6.6-1.17,2.45-.76,5.61-.15,8.16,6.18-1.08,12.36.7,17.39,4.35,1.11-.2,2.16-10.4,5.01-11.91,3.05-1.62,8.75,3,12.33.92-.68-2.12-1.85-3.1-1.91-5.52-.02-.97,1.6-8.01,2.05-8.68,1.12-1.68,3.92-.99,5.58-1.85,1.16-.61,1.39-2.65,1.96-3.19,1.4-1.32,3.99.13,4.93-2.6-2.83-1.33-6.31-.76-9.19.21-.4.13-2.6.99-1.5,1.59ZM104.58,63.03c-.16-.09-3.05.13-3.56.19-2.28.31-4.3,1.12-6.34,2.15l-2.25,1.89c1.62-1.04,5.26-.09,6.4-.46.44-.14.66-.95,1.65-1.09s3.51.86,4.49-.41c.07-.09-.3-2.22-.4-2.28ZM29.66,77.84c-.93-.04-1,.72-1.44,1.23-6.39,7.41-8.34,16.21-5.36,25.7.63,1.99,1.52,3.01,3.35,3.96-.02-1.82-1.26-3.48-1.72-5.19-2.31-8.63.12-18.54,5.17-25.71ZM111.99,66.86c.37-.41.21-1.34-.52-1.79-2.2-1.36-4.7,2.13-5.33-1.37-.87.19-.05,1.32-.75,2.11-.39.45-1.02.62-1.58.74l4.84.87c.68-.02,3.07-.26,3.33-.55ZM59.61,76.47c-.14-.12-3.02-.93-3.54-1.04-3.01-.65-6.34-.9-9.31.12-1.89.65-2.06,1.54-1.51,3.34.98,3.23,3.64,6.65,4.75,9.94.79-.01.3-1.25.17-1.73-.45-1.64-1.61-2.87-.21-4.54,1.83-2.17,6.42,1.26,7.43,1,.11-.03.61-.77.52-1.05l-1.44.03c-.22-2.29.37-4.67,3.13-3.71-.43-.61.1-2.28,0-2.36ZM103.52,67.56l-2.95-.4c.32.9,2.76,1.78,2.95.4ZM118.65,71.38c.42-.68-4.43-5.39-5.08-5.26-.24.05-.86,1.58-1.31,1.92-1.69,1.31-5.14.09-7.17.18,2.3,1.61,5.76,3.77,8.64,3.59,1.66-.1,3.27-.99,4.92-.43ZM46.73,91.85c0-.8-.64-1.14-1.08-1.67-1.46-1.72-4.92-5.78-6.59-6.91-1.49-1.02-2.11-.65-3.22.58-3.57,3.97-4.98,13.18-3.48,18.19.4,1.36,2.11,4.88,3.57,4.83,3.55-.12,4.65-3.47,7.48-4.8l-3.19-.34c-.99-1.33-1.36-2.89-1.58-4.51-.74,1.24-3.8,2.34-4.54,1.06-1.69-2.91,3.37-2.46,5.01-1.15-.43-1.83.34-6.96,2.24-7.54,1.58-.48,4.82,3.11,5.39,2.24ZM105.82,92.07s.27-.08.41-.4c.21-.46,1.42-5.66,2.4-4.94.49.36-1.75,3.93-.96,4.98,1.25-.59.62-2.6,1.27-3.37.5-.6,1.09-.57,1.01.28-.1,1.09-2.16,6.31-2.07,6.65.03.13.95.69,1.05.52l2.06-8.07c.72.55.07,1.76.23,2.6.23,1.23,2.06,3.75,3.55,3.39-.34-1.64.57-3.16,1.29-4.57.6.61,0,2.64.85,3.2,1.69,1.1,2.7-5.53,3.13-6.13.24-.35.76-.62.94-.17l-.58,3.23,1.75-4.65c.81,2.09-1,4.4-1.16,6.26-.08.91.38.65,1.02.49-.17-2,.66-4.27,1.49-6.04l.5,1.34,1.21-1.19.64.84c.03-1.38,1.4-3.19,1.47-4.48.05-1.07-2.81-4.62-3.83-5.39-.5-.38-5.12-3.19-5.43-3.28-1.26-.35-4.65.66-6.67.33-2.77-.46-7.08-5-9.67-2.97-.53.41-.69,1.5-1.41,1.87-1.01.52-2.41.22-3.34.95-.58.45-.69,1.73-1.2,2.41-1.44,1.92-4.4,1.52-6.5,2.23l-.83,5.88c1.12-.4.24-3.1,1.91-2.53-.87,2.59-2.05,5.38-1.31,8.17l1.72-7.49,2.12-3.8c.53.48-.12,1.66-.25,2.45-1.78,1.88-2.31,5.83-2.19,8.38.02.5-.06,1.77.72,1.5-.45-1.64-.1-3.3.02-4.96.04-.56.53-.55.87-.49-.08,2.33.63,4.42.31,6.66,1.87-.27.88-2.05.94-3.18.05-.92.22-1.88.31-2.81,1.43.5.54,3.76.98,5.09l.53-4.28,1.18-1.8-.71,6.36c1.28.04,2.9.64,4.06,1.15-.07-.46-.21-.92-.27-1.39-.19.18-.75.71-.83.64-.46-.61.11-2.33.02-2.4-.93-.67-.94,1.18-1.16,1.43-.35.39-.97-.16-1.01-.29-.05-.16.19-3.21.26-3.38.2-.51,1.04-.33,1.26-.6.16-.21,1.41-3.65,1.94-4.74s.47-2.79,1.86-3.58l-3.53,9.08c.14,1.36.66.29.84-.24.45-1.31.46-3,1.73-3.86-.17,2.76-1.73,5.08-1.36,7.94.87-.82.57-2.87,1.18-4.23.22-.49.57-1.45,1.22-.78-.28,1.77-.91,3.44-1.3,5.18-.16.74.54,1.21-.84,1.22.89.39,1.9,2.03,3.59,1.23-.66-2.86.28-6.37,2.2-8.58l-2.15,8.81,4.47.82-.35-1.85-1.3.73c-.08-.46-.21-.92-.27-1.39-.3.53-.44,1.64-1.26.96.36-2.69.93-5.77,2.17-8.2.21-.41.61-1.79,1.29-1.34.37.25-2.5,6.23-2.2,8.58ZM58.77,79.47c-.51-.34-1.97,1.41-1.49,2.2.14.11,2.27-1.69,1.49-2.2ZM37.17,97.05c-.33-.18-1.89-.14-2.4-.02-1.01,1.53,3.3.53,2.4.02ZM89.17,92.86c-1.56.17-3.22.85-4.78.81-2-.04-6.84-2.81-8.31-1.45-.12.12-1.28,2.64-1.42,3.07-.7,2.06-.93,4.59-1.83,6.69,1.92,1.62,2.56,4.16,3.92,6.2.89-.08.22-1.02-.02-1.45-.7-1.24-1.94-2.28-1.96-3.93l2.38,2.42c.21-.85-1.65-2.93-1.54-3.06.04-.05.88-.21.92-.18.45.35,1.44,2.77,1.88,3.47.31.49.86,1.76,1.5,1.64l-2.53-5.75c1.79.24,1.41,2.86,3.02,3.26l-1.63-3.53c1.88-.54,1.35,2.16,2.84,2.33l-1.54-3.06,2.75,1.87c.2-.85-1.63-2.92-1.54-3.06.87-1.35,1.79,2.74,2.67,1.4.07-.11-1.44-2.03-1.37-2.13l2.03.57-.35-1.85c1.88.6,1.11-.02,1.5-.57.54-.76,1.33-.92.83-2.27.82-.37.2,1.2,1.3.69.56-.26,1.69-1.32,1.3-2.15ZM56.52,99.1l-7.41,1.42c-.53.1-4.26,2.54-4.95,3.09-2.81,2.23-4.76,5.09-5.95,8.45-.51,1.43-1.91,4.45.88,3.82,1.32-9.49,10.29-16.27,19.69-16.25l-2.26-.52ZM91.1,115.53c.96-.84,1.33-.18,2.4.02-.36-.66,1.19-2.85,1.41-2.67l-.86,3.04,1.67-1.28.36,1.85c.38.33,4.61-1.59,3.26-3.02l-1.5,2.2-.57-1.01c.63-1.1,1.76-5.09,2.44-5.59.18-.13.74-.26.73.1l-.81,3.28,2-2.06-1.19,3.83c.47-.17,1.26.1,1.33-.58.15-1.57.82-2.59,1.01-4.08.37-3-.29-1.59-1.8-2.94-2.43-2.15-4.18-5.85-6.07-8.27-.73-.94-2.06-1.07-2.25-2.31,3.11.27,3.21,2.5,4.55,4.27.98,1.29,3.15,4.06,4.22,5.06.54.51,3.74,2.42,4.31,2.56.82.2.56-.44.67-.74.46-1.28.48-2.8,1.31-3.95l.5,1.35.83-.65c.56.29-.57,3.11-.98,3.6s-1.79-.12-1.28,2.11c1.81-1.8,3.57-3.57,3.1-6.36l.91,2.23c1.4-.99.43-3.02-.21-4.15-.5-.88-3.46-4.67-4.19-5.11-1.47-.89-3.77-.53-5.38-.98-2.12-.59-4.8-3.23-7.15-2.29-1.52.61-4.98,3.44-6.13,4.74-1.46,1.64-2.05,3.73-3.12,5.13-.7.93-2.13,1.4-2.63,2.65,2.08,1.21,1.72-1.5,3.48-1.86.41.27-2.88,5.38-3.06,6.18-.1.43-.1,1.28.59,1.01.17-1.78,1.15-3.58,2.45-4.79.28,2.37-2.54,4.26-2.08,6.64.83-.4,2.16-5.71,3.37-4.96-.57,1.3-1.05,3.13-1.63,4.34s-1.8.96-.74,3.31l1.79-4.62,1.31-1.73c.43.92-.05,1.31-.32,1.99-.59,1.51-1.38,4.14-2.68,4.84-.1.1,1.52,1.96,1.73,1.57-.28-2.54,1.28-4.9,2.24-7.15.94-.33.82.07.67.86-.42,2.23-2.19,4.52-2.82,6.74.84.01,1.07-.64,1.46-1.23.92-1.41,1.47-3.37,2.19-4.88.22-.46,1.05-.88,1.09-1.77,0-.17-2.35-.16-.72-2.49.77.41.81,1.7,1.18,2.31.25.41.98.12,1.04.4.16.74-.92,3.8-1.59,4.37-.04-.81.3-2.02-.21-2.36-.72.94-.86,1.97-1.09,3.09-.66.62-.7,1.16-1.13,1.86-.14.23-1.63.78-.65,1.35.11.06,1,0,1.48.2.26.11.56.92,1.1.75.08-1.62.7-2.28.68-3.97ZM77.69,115.69c-.29-7.63-9.22-14.23-16.29-14.88-10.47-.96-20.19,5.41-21.4,16.09.87.79,1.26-.47,1.84.85.64-1.68.86-3.23,1.71-4.88,6.41-12.34,23.13-12.38,30.7-1.31.29.42,2.62,5.5,3.43,4.14ZM111.99,94.25l-1.74-1.59-.11,1.94,1.85-.35ZM53.36,106.43c-4.57,1.21-8.01,5.56-9.32,9.99-.44,1.49-.55,2.19,1.17,2.61-.41-2.13.69-6.63,2.73-7.62,1.17-.56,2.83-.31,3.78-1.06.3-.23,2.01-3.71,1.64-3.92ZM67.08,112.92c.69.06,1.92.96,2.95.4l.57-2.03-.48,2.49c1.49.2,1.65-1.04,1.33-2.34-.27-1.1-1.28-2.15-2.39-2.38-.48-.1-.99.29-1.15.19-.15-.09-.15-.77-.55-.73s-.85.5-1.29.52c-.86.03-2.03-.59-3.04.33l.2-1.47c-.87-.1-2.14.08-2.91-.17s-1-1.18-1.32-1.31c-.36-.15-.96.11-1.41.03-.52-.09-1-.51-1.3-.53-.98-.07-1,1.86-1.37,2.58-.44.87-1.72,2.07-1.57,2.96l2.83-.3c.69,1.5-.34,1.33-.5,1.63-.05.1.4,1.7-.19,2.33,1.57.03.65-2.01,1.65-2.71,1.16-.82.29,1.22.12,1.89,1.66-.12.53-2.01,2.05-1.83-.61,2.41.7,1.68,1.16-.22l.03,1.43c1.17-.39,2.82-.31,3.9-.71.41-.15.05-3.52,1.25-1.23.17-1.51.78-1.81,1.16-.23-.19.34-.31.93-.35.96-.19.17-1.27-.37-1.41-.14-.04,1.64,1.1.5,2.03.57ZM113.1,95l-.31,2.21.81.12.31-2.21-.81-.12ZM115.46,99.83c1.4-1.22,1.49-3.84,1.8-5.62-1.18,1.37-1.6,3.84-1.8,5.62ZM112.27,98.5l-.31,2.21.81.12.31-2.21-.81-.12ZM51.16,115.01c.21.1,1.12-.37,1.39-.26.17.07-.74,1.93-.58,2.02,1.47.81.43-3.12,2.01-2.05l.44,1.11.72-2.53c-2.3.28-4.06-1.36-6.42-.13-1.1.57-2.19,5.17-1.95,6.53l2.12-5.2.12,1.89c.14.11.55-.47.83-.64-.06.42.04,2.35.3,2.82.81-1.03,1.38-2.22,1-3.55ZM82.76,107.05c-.87.02-1.43.77-1.12,1.65l1.12-1.65ZM80.6,110.81c-.11-.93-.25-2.05-1.36-2.14l.44,2.31.92-.18ZM81.32,112.72c-.28-.21-.85-.15-1.14-.36-.66-.46-.75-1.33-1.42-1.19,1.78,3.51-2.2,8.26,4.56,6.32-.89-1.23-.93-3.97-2-4.77ZM48.8,120.25c-.25-1.16,1.16-2.27-.3-2.82-.14.52-.72,2.97.3,2.82ZM77,117.9c-2.19-1.37-6.92-2.71-9.51-2.91-6.34-.48-12.23,1.7-17.21,5.47.84,2.39,1.5.61,2.61-.05,13.67-8.06,30.7-1.3,32.86,14.85.7-.26.72-1.06.78-1.68.55-5.49-5.03-12.87-9.54-15.69ZM102.4,114.33c1.57-1.41,1.88-4.09,1.71-6.08l-1.71,6.08ZM105.33,108.78l-.94,2.58.67.24.94-2.58-.67-.24ZM81.68,131.49c.68,1.84,1.01,5.28,1.42,7.41.01.07-.85.99-.01,1.2.31-.65,1.09-1.3,1.33-1.91,1.52-3.82-2.1-10.98-4.69-13.91-6.5-7.35-19.45-8.05-27.23-2.32,1.85,2.17,3.84-.05,5.87-.65,8.82-2.61,19.93,1.09,23.31,10.18ZM59.42,123.03c-1.73-.96-.27,3.42-.02,2.4-.47-.61.13-2.34.02-2.4ZM60.81,122.76c-1.1-.61-1,1.41-.57,2.02.35.49.67-1.97.57-2.02ZM62.2,122.5c-1.63-.05-.5,2.04-1.03,2.95-.18.31-.94.14-.71.5,1.2.7,3.05,2.53,4.51,2.24,1.1-.22,2.64-2.22,4.14-2.22-.87-.92-.29-2.11-.63-3.23l-1.31,3.13-.85-3.2c-.19.04-.28,2.35-.42,2.96-.09.38-.06,1.78-.96,1.14-.18-.13.7-3.69.36-4.39-1.87.75-.12,3.66-1.74,4.66-.33-1.66-.24-3.38.5-4.89-2.04-.04-1.08,1.02-1.29,2.54-.09.6,0,2.02-.69,2.15l.13-4.34ZM92.76,116.65l-1.87,2.75c1.52.16,1.87-1.59,1.87-2.75ZM88.83,121.24c-.64-1.06-6.04-2.94-6.64-2.09,1.03,3.74,3.59,2.83,6.64,2.09ZM94.32,117.31c-1.03-.56-.88,1.41-1.54,1.97,1.19,1.66,1.7-1.88,1.54-1.97ZM95.46,117.39l-.94,2.58.67.24.94-2.58-.67-.24ZM70.23,124.32l-.73-1.3-.02,2.4,2.05-1.83-1.29.73ZM97.74,117.62l-1.66,2.26.58.82,1.08-3.08ZM85.75,124.59c.37.24,1.15.33,1.59.23l7.9-2.65c-3.19-1.91-6.95.63-10.4.79-.16.23.62,1.44.91,1.63ZM75.39,126.21c-.46-.73-1.37-1.35-2.23-.95-.79,1.05-6.86,3.61-6.71,4.34l4.13,2.81.89-1.61,1.32,3.1-.3-2.82c2.11.49.72,3.74,2.59,4.78l-1.12-4.58c.61-1.13,2.52,5.64,2.85,6.18,1.28.76.69.13.41-.61-.39-1.05-.86-1.98-.88-3.15,1.96.96,1.54,4.69,2.72,6.68.8-.14.13-2.16,0-2.66-.32-1.17-.97-2.16-1.14-3.36l.79.32,2.57,7.19c-.36-1.01.08-2.14-.1-3.1-.26-1.41-1.93-3.62-1.93-4.86,0-.37.91-.39.88-.74-.03-.47-1.4-3.49-1.78-3.9-1-1.08-1.99-.14-3.1-.19-1.4-.06-2.62-.82-4.13-.15-.21-.89-.4-.89.53-1.08,1.86-.37,3.62.61,5.5-.08l-2.58-.95.84-.64ZM94.09,123.6c-.36.11-.9.07-1.15.22-1.31.79.57,2.38,1.15-.22ZM91.81,124.57c-1.14-.53-3.93,1.98-5.51.99.14,1.19.66,2.68,2,2.98l.02-2.41,1.4,3.57-.47-3.75,1.6,2.09-.29-2.82c.53-.33,1.49,2.08,2.11,1.03.1-.16-.71-1.62-.86-1.69ZM87.56,129.64l.35,1.86.93-.18-.35-1.86-.93.18ZM140.2,133.94c.13-.28-.2-.61-.35-.87-.23-.4-.99-1.73-1.53-1.61l.25,3.79c.27-.46,1.59-1.22,1.64-1.31ZM30.66,155.88c.1-.15-1.15-3.1-2-2.97l-.49,2.49,2.49.49ZM117.27,177.29c-23.4-4.33-46.91-8.22-70.17-13.27-6.14-1.8-12.11-3.96-18.02-6.39l48.33,118.42c11.74-13.23,23.86-26.19,35.07-39.85,1.36-17.86,3.58-35.7,4.77-53.57.06-.95.46-4.93.02-5.34ZM139.22,264.24l.98-127.86c-13.75,14.25-31.62,23.59-48.18,34.18l26.94,5.71.46,2.62c-2.1,19.63-2.86,39.51-5.67,59-1.51,1.97-3.66,3.85-5.11,5.8-.27.36-.68.71-.46,1.24l31.02,19.32ZM138.19,266.35c.67-.9-3.93-2.88-4.46-3.21-7.07-4.47-14.09-8.87-21.25-13.22-1.23-.74-4.66-3.6-5.72-3.5l-27.43,30.95,5.92-.4c15.32-2.26,30.81-5.1,45.87-8.76,2.27-.55,4.54-1.77,7.06-1.85Z"/>
      <path d="M51.16,115.01c-.39.36-.88.48-1.3.73.08-.61.57-1.11.89-1.61.47-.14.27.82.41.88Z"/>
      <path d="M92.6,80.68l2.34-2.84-.2,1.47,1.89-.12c-.49.93-2.05.43-1.54,1.97,2.37.79.85-1.55,2.97-2-.61,1.12-.71,1.84-.86,3.04l2.33-2.84-1.84,4.19c-1.05.51-.55-.86-.49-1.34-1.08,2.07-2.47.49-3.01.6-.84.18-.57,2.42-.63,2.97-.1-.03-.43.16-.82,0-.23-.09-.44-.61-.75-.67.02-.65.12-1.29.11-1.94l1.09.75.62-1.8-1.43.04c.19-.49.12-1,.2-1.47Z"/>
      <path d="M90.93,114.6c.02.3.17.63.18.93-1.07.93-.94,2.26-1.78,3.22-.16-1.05.09-2.38.31-3.42.42-.4,1.03-.5,1.3-.73Z"/>
      <path d="M67.08,112.92c-.1-.46-.16-.93-.27-1.39.31-.55.19-1.14.75-1.1.26.93.51,2.02-.48,2.49Z"/>
      <path d="M87.99,144.44c-4.31,6.54-6.4,13.53-8.74,20.88-.11.34-.05,1.78-.97,1.13-.14-.1.43-2.93.54-3.46,1.2-5.74,4.14-12.69,7.72-17.32.43-.56.55-1.26,1.44-1.23Z"/>
      <path d="M120.24,147.4c-1.02,1.93-3.51,2.92-5.07,4.41l-13.91,9.29c.62-1.45,2.32-2.47,3.57-3.42,3.42-2.62,7.49-5.39,11.1-7.78,1.36-.9,2.73-2.03,4.31-2.51Z"/>
      <path d="M135.95,104.07c-2.2,4.96-6.24,10.15-10.39,13.7-.53.45-.86,1.09-1.67,1.08,2.07-2.96,4.84-5.46,7.06-8.3,1.28-1.63,2.27-3.6,3.55-5.25.43-.56.55-1.26,1.44-1.23Z"/>
      <path d="M119.29,127.42c.08.83-1.03.56-1.66,1.48-.5.73-1.45,4.02-.75,4.73,1.45-1.47,1.38-3.55,2.36-5.25,1.17,1.35-1.98,6.83-3.01,6.81-.71-.01-.77-.72-.77-1.31-.02-1.73,1.22-7.51,3.84-6.47Z"/>
      <path d="M96.28,137.58c-1.05,1.78-2.52,3.16-2.82,5.33.93.04,1-.72,1.44-1.23.94-1.08,1.84-2.26,2.71-3.4.33-.14.41.43.36.65-.25,1.04-4.1,5.88-5.26,5.09-.76-2.44,1.31-5.52,3.57-6.44Z"/>
      <path d="M125.39,139.2l9.05-10.37c.35.82-.25,1.19-.61,1.8-1.9,3.21-5.05,7.02-8.44,8.57Z"/>
      <path d="M134.41,133.65c0,1.84-8.93,10.86-9.52,10.46-.64-.44.17-1.27.65-1.35l8.87-9.1Z"/>
      <path d="M107.46,138.32c.44,2.1-1.32,4.46-2.73,6-.7.76-1.37,1.66-2.51,1.72l3.5-4.27c-1.02-.46-1.89,1.63-1.98-.33l3.72-3.12Z"/>
      <path d="M128.99,117.88c-.36-.85.23-1.2.66-1.77.54-.71,5.42-7.42,5.79-7.15.36.82-.25,1.19-.61,1.8-.48.81-5.32,7.5-5.84,7.12Z"/>
      <path d="M124.9,98.98c1.15-.68,1.87-1.79,2.57-2.89.87.33-1.09,3.08-1.51,3.4-.67.51-1.48.54-2.27.67-.34-2.4,1.52-4.43,3.19-5.89l-1.97,4.7Z"/>
      <path d="M115.98,147.73l-3.85,3.22-5.91,3.44,2.55-2.5c2.44-1.28,4.56-3.37,7.21-4.16Z"/>
      <path d="M91.02,157.78c.8.48-2.55,3.2-2.07,4.23l2.66-2.42c1.15,2.17-1.52,3.58-3.41,3.53-.36-1.03-.15-2.14.36-3.07.23-.41,2.07-2.5,2.45-2.26Z"/>
      <path d="M101.39,124.12c-.48,1.2-1.91,2.65-2.91,3.46-.76.62-1.61.76-2.29,1.26-1.03.76-1.21,2.25-2.53,2.51-.15-2.69,2.89-3.31,4.4-4.47.93-.71,1.8-2.58,3.34-2.77Z"/>
      <path d="M133,104.48c-.26.38-1.75,2.23-2.38,1.81l5.85-9.52c.14,1.13-.54,2.54-1.04,3.52-.53,1.04-1.8,3.29-2.43,4.19Z"/>
      <path d="M128.13,143.48l5.97-6.42c.75.57-2.1,3.57-2.61,4.07-.91.86-2.17,1.91-3.36,2.35Z"/>
      <path d="M112.42,109.05c-.96,1.54-1.79,3.26-2.72,4.8-.37.61-.48,1.28-1.4,1.26-.35-.82.26-1.19.61-1.8.57-.97,1.37-2.14,2.06-3.03.43-.56.55-1.26,1.44-1.23Z"/>
      <path d="M133.93,68.45l-.77-1.53-.09-5.5c1.33,2.29.71,4.53.86,7.03Z"/>
      <path d="M130.74,129.54c-.37-.21,3.44-4.53,3.83-5.05.36.83-.26,1.19-.61,1.8s-2.41,3.71-3.22,3.25Z"/>
      <path d="M125.49,127.19c.1.07-.49,1.65-.11,1.94,1.1.84.54-1.34,1.21-1.19,1.16,2.56-1.6,3.35-2.14.73-.12-.57.27-1.97,1.04-1.48Z"/>
      <path d="M133.95,121.25c.81.58-2.16,3.74-3.17,3.48l3.17-3.48Z"/>
      <path d="M133.35,82.97c.33.21-.68,3.15-1.55,3.17-1.07.03-.62-.8-.27-1.39.25-.43,1.26-2.15,1.82-1.79Z"/>
      <path d="M115.84,109.35l.2-1.47-1.45,1.23c-.33.14-.41-.42-.36-.64.55-2.55,4.54-1.46,1.61.89Z"/>
      <rect x="131.04" y="115.59" width="4.34" height="1.04" transform="translate(-41.76 140.85) rotate(-49.12)"/>
      <path d="M90.37,136.79c.76.53-1.61,3.14-2.24,3.31-.61-.45,1.65-3.72,2.24-3.31Z"/>
      <path d="M134.78,67.81c-.23-.9-.53-2,.48-2.49.23.9.53,2-.48,2.49Z"/>
      <path d="M50.66,142.46l2.87,2.59,2.09.78-3.72-4.9c-1.56-1.65-2.34-1.9-4.64-1.18.4-1.76,2.75-1.5,3.95-.77.31.19,4.66,4.93,4.87,5.3.66,1.16.71,2.67-.91,2.54-.91-.07-4.72-2.92-4.5-4.35Z"/>
      <path d="M65.32,136.3l-13.02-6.04-1.34-1.29c1.66-.21,15.2,6.12,14.36,7.33Z"/>
      <path d="M31.92,127.32c-.75.3-1.29-.16-1.95-.39-2.87-1-7.46-3.78-9.78-5.77-.92-.78-2.17-1.92-2.52-3.11,2.85,1.82,5.41,4.08,8.31,5.86,1.87,1.15,4.27,1.93,5.94,3.41Z"/>
      <path d="M76.39,149.06c-2.62-2-4.88-4.46-7.48-6.48-1.96-1.53-4.29-2.63-6.11-4.35l3.91,1.65c3.5,2.55,7.54,5.3,9.68,9.18Z"/>
      <path d="M67.39,164.7c-3.43,0-6.76-1.52-10.16-1.95l-2.94-1.3c2.51.06,5.35.68,7.78,1.3,1.69.43,4,.85,5.32,1.95Z"/>
      <path d="M28.32,116.01c-.57.76-3.03-1.74-3.71-1.89-.39-.09-.87.37-1.38.23-1.06-.28-2.5-1.94-2.54-3.12l1.97,1.54c.14-1.76-2.78-2.53-2.59-4.78l8.25,8.02Z"/>
      <path d="M47.36,160.37c-4.2-.36-8.87-2.04-12.35-4.35,1.58.12,3.39.84,4.91,1.37,1.93.67,3.93,1.36,5.84,2.08.56.21,1.36.21,1.6.9Z"/>
      <path d="M31.44,129.82c-2.35-.24-5.35-1.87-7.33-3.14-1.47-.94-3.36-2.13-4.07-3.79l11.4,6.94Z"/>
      <path d="M75.91,151.55l-8.71-7.93c.85-.36,1.2.23,1.77.66,2.53,1.92,5.44,4.46,6.95,7.27Z"/>
      <path d="M43.79,156.73c-1.28.8-10.96-2.96-10.32-3.78l8.72,2.88,1.6.9Z"/>
      <path d="M40.76,153.48c-2.4-.85-4.9-1.58-7.12-2.86-.61-.35-1.38-.23-1.34-1.28,2.34.92,4.9,1.69,7.13,2.85.64.33,1.37.27,1.34,1.29Z"/>
      <path d="M74.87,143.59c-.18.3-4.55-3.2-5-3.61-.68-.61-1.69-1.36-1.88-2.28l3.26,2.02,3.62,3.86Z"/>
      <path d="M44.48,150.36c.09,2.92,2.51.24,3.18,1.56,1.23,2.43-3.03,2.19-3.97-.69-.29-.89.03-.77.79-.87Z"/>
      <path d="M11.68,94.81c.3.27.62,2.3.66,2.9.03.41-.82.48-1.11.45-1.22-.11-1.26-3.46-1.58-4.49l2.03,1.14Z"/>
      <path d="M36.76,145.12c-1.99-.1-4.42-.97-6.1-1.99-.61-.37-1.29-.47-1.26-1.4,2.33,1.28,5.38,1.69,7.36,3.39Z"/>
      <path d="M38.02,149.2c-2.67-.14-5.46-1.54-7.37-3.38l4.31,1.66,3.05,1.73Z"/>
      <path d="M29.3,131.19c.24.87-.85.61-1.33.48-1.74-.48-4.89-2.15-5.57-3.96,2.29,1.1,4.33,2.97,6.9,3.48Z"/>
      <path d="M35.67,131.89c.26.21.64,1.86,1.61,2.09,1.19.28.06-1.46,1.02-.91,1.71.98.59,1.99-1.24,1.83s-2.95-4.24-1.39-3.01Z"/>
      <path d="M65.47,162.19c-2.05-.03-4.94-.25-6.55-1.62,2.08-.16,4.88.27,6.55,1.62Z"/>
      <path d="M69.32,154.73c-2.39-.56-1.85-3.77-3-5.66.61-.07,1.51,1.5,1.71,1.93.52,1.15.58,2.61,1.29,3.73Z"/>
      <path d="M32.37,139.73c.26.54.26,1.25-.51,1.05-.57-.15-4.9-2.61-4.65-2.94l5.16,1.9Z"/>
      <path d="M69.1,158.61c-1.31-.33-1.7-2.35-2.09-3.44,1.53.38,1.93,2.1,2.09,3.44Z"/>
      <path d="M29.63,135.44c-1.58.21-3.2-.98-4.23-2.06,1.4.08,3.25,1.12,4.23,2.06Z"/>
      <path d="M63.56,147.19l1.08,3.15c-1-.1-3.04-3.27-1.08-3.15Z"/>
      <rect x="8.1" y="81.1" width="2.75" height=".72" transform="translate(-70.35 62.62) rotate(-70.08)"/>
      <path d="M60.81,90.12c-.56-1.24.66-.91.99-1.93.4-1.24.03-3.03.66-4.4,1.17-2.55,4.8-3.78,7.24-2.31,1.51.91,1.22,2.46-.1,1.93-2.02-.82-2.48-2.05-4.96-.15-2.79,2.14-.21,6.08-3.83,6.86Z"/>
      <path d="M73.16,71.92c1.91.96-1.72.84-1.88.91-.57.22-1.01.94-1.81,1.22-1.63.58-3.36.26-4.66,1.87-.74-.53,1.1-2.39,1.75-2.66,1.1-.45,1.97,0,2.67-.22,1.1-.34,2.11-2.03,3.93-1.11Z"/>
      <path d="M83.55,78.57c-.3.42-1.98-.53-2.75-.44-1.15.14-1.88,1.37-3.48,1.65-.92.16-.75.11-.88-.8,1.92-.63,3.69-2.46,5.89-1.85.48.13,1.51,1.05,1.23,1.44Z"/>
      <path d="M85.26,84.96c-1.41.72-2.79-2.95-2.56-3.35,1.83-.3,2.4,1.97,2.56,3.35Z"/>
      <path d="M79.33,86.58c-1.9.31-3.76.62-5.47,1.53.29-1.98,4.2-2.95,5.47-1.53Z"/>
      <path d="M64.01,94.32c.29,1.11.29.78-.53,1.04-1,.32-1.9.78-2.91,1.05-.19-2.04,1.92-2.44,3.44-2.09Z"/>
      <path d="M55.4,94.52c-2.06.77-.63-3.37.22-3.88l-.22,3.88Z"/>
      <path d="M116.22,86.24c-1.45-.49-1.66-2.61-2.42-3.85-.64-1.04-2.03-2.55-3-3.29-.23-.18-3.93-1.73-1.85-2.02,2.4-.33,7.82,6.45,7.27,9.16Z"/>
      <path d="M104.88,82.17c.55.38-1.44,3.57-1.68,4.3-.48,1.45-.69,3.75-1.06,5.34-.08.36-.07,1.83-.96,1.14-.84-.64,2.08-8.35,2.67-9.68.29-.64-.22-1.14,1.02-1.1Z"/>
      <path d="M106.16,73.78c.56-.37,1.04-.94,1.62-.33.37.39,1.39,1.97.44,2.33-1.43.54-4.14-2.52-2.33-3.4l.27,1.4Z"/>
      <path d="M119.7,79.34l.66-1.56c.59.86.76,1.87-.34,2.42-1.5.74-3.3-1.56-1.92-2.94l1.6,2.09Z"/>
      <path d="M103.57,72.82l-.79.87,1.34-.49.36,1.85c-3.08,1.08-4.15-4.91-.91-2.23Z"/>
      <path d="M113.17,75.3c.2,2.15.52,1.19,2.03.58.83,1.23-.74,2.57-1.81,1.8-.67-.49-1.95-2.48-.21-2.37Z"/>
      <path d="M125.23,80.68c.61,1.22,1.79,2.94-.3,3.41-.17-.12.6-1.34.03-1.85-.16-.14-1.18.34-.97-.6.11-.49.68-.99,1.25-.96Z"/>
      <rect x="100.38" y="82.32" width="4.85" height=".94" transform="translate(-9.71 151.8) rotate(-70.37)"/>
      <path d="M98.92,76.11c-.87.78-1.5,2.64-2.47,2.15l.61-1.8c-2.41,2.69-.87-.63.35-1.98.53.91,1.42.55,1.51,1.63.33-.3.95-1.09,1.34-.5l-1.82,2.99c-.26-1,.58-1.37.48-2.49Z"/>
      <rect x="112.04" y="90.03" width="4.21" height=".89" transform="translate(-4.71 174.67) rotate(-73.71)"/>
      <path d="M101.18,82.88c-.34-.77.21-1.28.41-1.94.16-.53.23-1.59.82-1.66.36,1.3-.14,2.8-1.23,3.59Z"/>
      <path d="M113.53,87.24c.08.06-.27,1.6-.37,1.98-.08.34-.05,1.84-.95,1.14-.33-.25.21-1.56.35-1.99.11-.34.05-1.79.97-1.13Z"/>
      <path d="M117.45,82.65c-.28-.8-.31-1.62.57-2.03.58,1.15,1,1.71-.57,2.03Z"/>
      <path d="M122.35,83.15l-1.39.27c-.71-3.03-.04-1.91,1.39-.27Z"/>
      <path d="M117.6,85.98c-.03.06-.63.09-.92.17-.46-.31.44-1.9,1.03-2.12.07.36-.02,1.77-.11,1.94Z"/>
      <path d="M111.13,87.21c-.11-.06.79-2.45,1.03-2.11.57.84-.29,2.53-1.03,2.11Z"/>
      <rect x="108.69" y="83.77" width=".94" height="1.41" transform="translate(-13.93 22.01) rotate(-10.83)"/>
      <path d="M90.57,80.11c-.31-.8.34-1.64,1.03-2.12.31.8-.34,1.64-1.03,2.12Z"/>
      <path d="M108.96,80.91c-.32.99.06,1.73-1.12,1.65-.3-.82.19-1.61,1.12-1.65Z"/>
      <path d="M119.46,85.63c-.32.99.06,1.73-1.12,1.65-.3-.82.19-1.61,1.12-1.65Z"/>
      <path d="M123.78,78.08l-1.12,1.65c-.44-1.48-.41-1.51,1.12-1.65Z"/>
      <path d="M107.39,80.25c.41.52-.43,1.76-.66,1.56l-.27-1.39.92-.18Z"/>
      <path d="M99.83,78.34l1.12-1.65c.31.88-.25,1.63-1.12,1.65Z"/>
      <path d="M105.47,77.74l-.92.18c-.28-.66.02-1,.43-1.52l.49,1.34Z"/>
      <path d="M94.83,112.41c.25-2.21,1.41-4.8,2.55-6.73.48,2.23-1.08,5.11-2.55,6.73Z"/>
      <path d="M97.56,112.25c-.15.27-1.46,1.37-1.29.14.16-1.1,1.99-4.57,2.76-5.58.54,1.58-.54,2.62-1.11,3.89-.21.48-.11,1.09-.37,1.55Z"/>
      <path d="M101.59,100.08c-2.24.77-2.66-.26-2.84-2.33,1.76-.56,2.77.65,2.84,2.33Z"/>
      <path d="M96.19,104.48c.54.43-.47,4.82-1.98,4.69.3-.32.88-5.56,1.98-4.69Z"/>
      <path d="M91.69,101.02c-.54.58-.99,1.23-1.58,1.74-.54-.43,1.14-4.35,2.2-3.54-.66.56-.47,1.21-.61,1.8.38-.4.76-.91,1.21-1.19.69.58-1.05,4.21-1.97,4.7-.03-1.17.48-2.32.77-3.51Z"/>
      <path d="M93.7,103.99c.33-.3.95-1.09,1.34-.5-.35.34-1.05,4.8-2.11,4-.16-.12.67-2.74.77-3.51-.63.57-.95,1.26-1.58,1.74-.56-1.52.8-2.5,1.46-3.64.59.17.19,1.4.12,1.9Z"/>
      <path d="M89.83,101.37c-.54.26-1.25.26-1.05-.51.24-.94,1.4-2.85,2.19-3.55l-1.15,4.06Z"/>
      <path d="M92.32,114.33c-.42-.31,1.02-3.42,1.69-3.68.58.76-.93,4.23-1.69,3.68Z"/>
      <rect x="103.89" y="101.32" width="1.23" height="2.46" transform="translate(-14.5 187.84) rotate(-80.09)"/>
      <path d="M89.51,107.19c-.4.28-1.46-.14-1.51-.43-.08-.42,2.24-2.27-1.07-.52l1.27-2.16,1.31,3.11Z"/>
      <path d="M105.4,97.43c1.07.86-1.8,2.47-1.85.35.69.35,1.77-.41,1.85-.35Z"/>
      <rect x="86.64" y="99.68" width="2.99" height=".68" transform="translate(-44.19 116.13) rotate(-55.56)"/>
      <path d="M87.79,103.2c-.19.82-.73,1.73-1.59,1.74.19-.82.73-1.73,1.59-1.74Z"/>
      <path d="M13.05,51.26c.54.46,2.3,4.26,2.92,5.2-1.36-.69-3.07-3.05-3.65-4.42-.4-.94.61-.89.74-.79Z"/>
      <path d="M38.86,93.36c-1.72.36-4.54.39-4.69-1.97,1.83-1.53,4.22-.19,4.69,1.97Z"/>
      <path d="M40.93,89.12c-1.39.64-3.64.17-4.12-1.38-1.04-3.37,3.98-1,4.12,1.38ZM39.36,88.46c0-.86-.92-1.4-1.74-1.59,0,.86.92,1.4,1.74,1.59Z"/>
      <path d="M39.35,100.95c.25,1.42-1.26,2.82-2.51,3.13-1.47.36-2.42-.09-1.56-1.67.7-1.29,2.77-1.1,4.07-1.46ZM38.05,101.68c-.43-.31-2.45,1.6-2.05,1.83.81-.23,3.03-1.11,2.05-1.83Z"/>
      <path d="M89.88,51.44c-.8,1.56-3.48-3.5-1.56-4.49,2.3-1.19,2.2,3.24,1.56,4.49Z"/>
      <path d="M84.8,52.41c-.66-.59-2.45-4.03-1.12-4.58,3.41-.34,2.35,5.68,1.12,4.58ZM85.45,50.85c-.04-.89-.3-1.61-1.27-1.68.04.89.3,1.61,1.27,1.68Z"/>
      <path d="M78.64,57.91c-.82.27-2.62.32-3.19-.34-.34-.39-.78-2.11-.66-2.28.82-1.23,4.18,1,3.86,2.62ZM77.54,57.16l-1.65-1.12c.04.93.83,1.43,1.65,1.12Z"/>
      <path d="M80.61,50.87c.49.22,3.32,4.73-.05,3.34s-1.63-4.09.05-3.34ZM80.35,51.83c-.06-.05-.62.14-.92.18-.32.46,1.1,1.6,1.74,1.59-.07-.36-.67-1.64-.82-1.76Z"/>
      <path d="M81.58,93.35l-3.44,2.09c-.88-2.32,1.99-2.32,3.44-2.09Z"/>
      <rect x="84.43" y="94.02" width="1.05" height="2.01" transform="translate(-33.58 48.16) rotate(-26.63)"/>
      <path d="M83.78,94.85c.06.05.36,1.01.73,1.3-.84.31-1.63-.22-1.65-1.12.3-.03.87-.22.92-.18Z"/>
      <path d="M82.84,97.43c-.97-.07-1.23-.79-1.27-1.68.97.07,1.23.79,1.27,1.68Z"/>
      <path d="M78.21,98.31l.04,1.43c-.57-.33-.98-.54-.96-1.25l.92-.18Z"/>
      <path d="M80.24,98.88l-.92.18-.26-1.39c.14-.26,1.38.58,1.19,1.21Z"/>
      <path d="M81.54,98.15l-.92.18-.26-1.39c.14-.26,1.38.58,1.19,1.21Z"/>
      <path d="M75.78,100.7l-.92.18-.26-1.39c.14-.26,1.38.58,1.19,1.21Z"/>
      <path d="M53.98,77.03c.51,1.61.7,4.56-1.51,4.61-.39-2.27-1.65-4.49,1.51-4.61Z"/>
      <path d="M49.22,77.52c.35.14.91,1.72.91,2.3,0,.37-.38,2.7-1.13,2.48-1.96-.56-2.54-5.94.22-4.78ZM49.41,80.78c-.12-.92-.24-2.06-1.36-2.14.12.92.24,2.06,1.36,2.14Z"/>
      <path d="M76.63,132.69l-.92.18-.26-1.39c.14-.26,1.38.58,1.19,1.21Z"/>
      <path d="M57.21,111.45c-.11-1.71-.27-3.87,1.51-4.61.24.18-.51,4.38-1.51,4.61Z"/>
      <path d="M56.87,107.2c.45.35-.62,3.4-1.78,3.22.28-.67.53-1.41.83-2.07.11-.25.02-1.87.96-1.14Z"/>
      <rect x="62.18" y="110.99" width="2.7" height=".8" transform="translate(-56.88 155.5) rotate(-80.42)"/>
      <path d="M61.73,112.51c-.23-.2,0-2.23.57-2.03.57.79-.28,2.26-.57,2.03Z"/>
      <path d="M61.28,110.19l-.92.18c-.28-.66.02-1,.43-1.52l.49,1.34Z"/>
      <path d="M69.4,112.48l-.92.18c-.28-.66.02-1,.43-1.52l.49,1.34Z"/>
      <path d="M119.45,32.83c-.38-1.03.03-2.01.94-2.58.41.54-.62,2.84-.94,2.58Z"/>
      <path d="M101,49.32c1.22,1.5-.92,4.26-2.29,4.28-.87.01-.63-.63-.55-1.17.24-1.72.91-3.09,2.85-3.11ZM99.22,52.54c.69-.48,1.34-1.32,1.03-2.12-.69.48-1.34,1.32-1.03,2.12Z"/>
    </g>
  </g>
  <g>
    <path d="M1177.37,68.07c20.41,3.3,37,18.84,42.8,38.54.49,1.66,1.86,9.42,2.14,9.84.14.22,1.63.76,2.35,1.64,1.54,1.88,2.74,8.65,2.42,11.03-.54,3.97-5.2,3.77-6.42,5.26s-.72,4.6-.98,6.39c-3.9,27.15-6.96,54.54-10.32,81.75-1.11,8.98-1.75,29.14-4.66,36.47-1.61,4.07-1.1,3.44-1.52,7.68-.46,4.62-8.86,6.95-12.89,7.98-13.76,3.52-50.61,4.67-61.96-4.36-3.98-3.17-1.75-5.28-2.62-9.04-.36-1.57-2.48-3.52-2.28-5.7-4.8-38.04-8.85-76.23-14.12-114.17-.25-1.83.07-5.49-.97-7.01-.88-1.28-5.84-1.22-6.43-5.24-.3-2.06.68-7.5,1.5-9.49.77-1.89,2.75-2.74,3.24-4.12.78-2.2,1.04-5.49,1.82-8,7.71-24.77,28.46-40.45,54.51-41.31,1.25-.04,3.89,1.07,4.54.61.98-.68,2.95-20.6,3.87-23.45,1.04-2.93,2.72-5.21,5.08-7.19,11.72-6.53,23.02-14.11,34.87-20.38,2.55-1.35,5.05-3.48,7.44-1.08,2.63,2.65,4.08,6.08.55,8.45-9.95,6.7-22.19,12.02-32.55,18.4-3.03,1.86-5.2,2.34-6.18,6.1-1.63,6.3-1.83,13.95-3.23,20.41ZM1173.6,75.96c1.82-9.31,2.39-19.04,4.55-28.28,1.17-5,2.25-5.14,6.39-7.73,10.67-6.68,22.6-12.14,33.31-18.87,2.13-.61-.06-4.22-1.19-4.92-.85-.53-.98,0-1.56.31-7.66,4.03-15.92,8.99-23.42,13.43-3.51,2.08-7.44,4.2-10.82,6.36-3.58,2.28-5.76,3.31-7,7.73-2.64,9.4-2.59,20.91-5.08,30.53v2.14c1.65.11,3.33.02,4.83-.7ZM1166.94,68.68c-6.61.43-13.37.45-19.64,2.76,3.62,5.83,12.91,5.09,19.03,5.22l.61-7.98ZM1181.67,71.14l-4.91-.62-.61,4.91c2.68-.22,4.6-1.8,5.52-4.29ZM1146.68,71.76c-15.92,4.12-29.41,17.62-34.84,32.99-.81,2.3-3.61,12.18-3.15,13.85.59,2.12,7.48,3.97,9.61,4.55,9.37,2.53,19.06,3.23,28.68,3.85,2,.13,10.07,1.64,11.08.04l7.63-47.92c-5.02.1-10.78-.13-15.52-1.97-2.66-1.03-4.85-2.32-3.51-5.39ZM1167.55,127.61c10.04.04,20.36-.47,30.31-1.91,4.69-.68,10.78-1.73,15.26-3.16,1.57-.5,6.78-2.41,7.15-3.94.18-.75-1.12-6.86-1.45-8.19-3.41-14.01-12.56-26.73-25.07-33.86-3.36-1.91-6.98-3.34-10.55-4.8-.62.5-.16,1.77-.41,2.64-.87,2.98-6.39,2.83-7.14,4.52l-8.09,48.68ZM1160.18,127.61c1.48-.18,4.92.7,5.44-1l7.44-48.11c-1.55.92-3.15.54-4.86.66l-8.02,48.44ZM1106.47,119.64c-1.05-.03-2.89,8.52-1.58,10.17.88,1.1,5.11,2.63,6.65,3.16,25.75,8.83,79.09,8.85,104.96.33,2.19-.72,7.79-2.39,8.14-4.79.18-1.25-1.1-8.9-2.16-8.87-3.31,4.14-8.86,5.27-13.8,6.45-24.26,5.78-64.15,5.71-88.42,0-4.99-1.17-10.49-2.2-13.8-6.45ZM1217.88,135.59c-6.45,1.47-12.83,3.25-19.41,4.22-22.7,3.32-52.77,3.11-75.26-1.32-3.6-.71-7.14-2.07-10.74-2.77-.53-.1-1.44-.42-1.41.19,1.16,6.41,1.63,13.04,2.56,19.54,1.16,3.51,19.77,6.59,23.6,7.1,20.11,2.67,48.92,2.79,68.51-2.57,2.16-.59,8.91-2.47,9.57-4.55l2.57-19.83ZM1214.81,158.92c-6.47,3.5-14.56,5.03-21.85,6.07-15.69,2.24-31.54,2.09-47.19.67-10.68-.97-21.91-1.74-31.62-6.74l12.91,99.73c1.27.79,2.48,1.67,3.85,2.29,14.54,6.59,48.52,6.37,63.64,1.4,2.92-.96,8.1-2.77,8.58-6.15.86-6.01,1.15-12.29,1.92-18.33,3.37-26.29,6.73-52.6,9.76-78.93ZM1200.69,262.66c-2.84.85-5.56,2.16-8.46,2.9-15.53,3.96-47.71,4.36-62.28-2.44-.55-.26-.99-.62-1.39-1.07-1.44,5.45.44,6.69,5.05,8.45,15.34,5.86,46.96,6.12,62.16-.18,4.27-1.77,5.58-2.55,4.92-7.66Z"/>
    <rect x="1124.39" y="168.4" width="1.77" height="84.24" transform="translate(-17.43 141.34) rotate(-7.13)"/>
    <rect x="1166.55" y="208.88" width="74.23" height="1.88" transform="translate(851.14 1379.67) rotate(-83.12)"/>
    <path d="M1154.66,108.58c.81.69.09,1.18-.91,1.23-13.98.71-27.9,1.88-41.44,5.52l4.29-2.15c4.38-1.89,36.44-5.97,38.06-4.59Z"/>
    <path d="M1216.04,114.73s.23,1.29-.3,1.21c-1.17-.74-2.66-1.15-3.99-1.53-11.56-3.28-23.95-4.01-35.92-4.6-1.01-.05-1.71-.54-.91-1.23,1.04-.89,12.72,1.14,15.04.61,7.12,1.15,14.38,1.78,21.31,3.86.78.23,4.48,1.43,4.77,1.68Z"/>
  </g>
</svg>