<?xml version="1.0" encoding="UTF-8"?>
<svg id="Layer_1" xmlns="http://www.w3.org/2000/svg" version="1.1" viewBox="0 0 1087.62 182.02">
  <!-- Generator: Adobe Illustrator 30.0.0, SVG Export Plug-In . SVG Version: 2.1.1 Build 123)  -->
  <path d="M669.41,148.42c2.69-.42,13.39.67,13.94-.04.82-1.07-1.2-7.99,3.06-9.92,3.54.04,4.73,14.69,1.12,17.1-2.88,1.92-25.09,2.23-25.95-2.28-.14-.74,2.35-14.13,2.79-14.88,2-3.38,13.49-7.72,16.15-15.85,6.03-18.4-5.32-40.12-25.91-38.03-18.38,1.86-26.42,24.99-18.76,40.47,3.47,7.01,12.08,9.25,14.5,13.5,1.35,2.38,3.63,12.18,2.91,14.7-1.34,4.7-23.07,4.32-25.98,2.37-3.6-2.4-2.42-17.06,1.12-17.1,4.26,1.93,2.23,8.85,3.06,9.92.53.69,11.24-.34,13.95.04,1.8-7.64-6.23-7.37-10.85-12.16-15.75-16.33-11.4-46.37,9.47-56.2,34.31-16.16,60.54,29.25,37.36,55.37-4.18,4.71-11.81,6.43-11.99,13Z"/>
  <path d="M265.42,114.43c7.95-4.18,4.41-21.81,15.98-19.99-.71,16.65-17.78,36.15-6.17,52.74,1.34,1.91,4.18,1.27,6.07,2.28,7.43,3.97-5.09,11.21-11.95,4.02-2.92-3.07-.96-8.41-4.95-11.02-25.12,34.54-53.38.91-42.02-32.05,8.45-24.54,38.66-20.49,43.04,4.02ZM242.84,100.72c-20.52,3.67-20.2,49.13,1.58,47.9,9.02-.51,17.4-14.52,17.1-23.14-.28-8.23-8.99-26.5-18.69-24.76Z"/>
  <path d="M391.41,78.43l21.95,68.62c19.86,7.85-2.93,11.23-12.98,9.4-6-1.09-6.42-7.72-3.96-8.03,2.97-.37,10.05,2.2,8.81-2.79l-20.83-57.19-18.81,57.19c-1.23,4.99,5.84,2.42,8.81,2.79,1.72.21,1.34,3.78,1,5-1.31,4.57-22.66,4.58-23.98,0-2.21-7.69,4.27-3.32,6.18-6.14l19.79-59.87c-6.71-2.45-17.59,2.47-15.98-8.98h30Z"/>
  <path d="M951.42,116.42l6.07-12.91c2.8-7.37-.64-10.65,9.9-9.07-1.65,19.34-18.16,31.03-7.69,50.69,1.66,3.12,15.15,5.89,7.76,10.36-8.69,5.25-16.84-4.93-16.07-13.05-7.75,4.87-10.73,13.39-20.98,14.11-32.53,2.31-33.53-59.63-4.04-62.19,16.6-1.44,20.65,8.2,25.05,22.07ZM928.77,100.9c-20.02.94-22.32,48.98,1.66,47.72,8.58-.45,17.05-15.16,17.05-23.18,0-7.95-10.07-24.94-18.71-24.53Z"/>
  <path d="M813.42,114.43c6.34-1.84,6.08-17.3,8.16-19.83.66-.8,5.83.14,7.82-.16,2.69,2.67-11.65,31.4-11.49,36.6.06,1.98,3.47,14.18,4.49,15.4,1.44,1.73,19.51,8.45,1.81,9.99-7.23.63-10.88-7.8-10.82-14-14.61,17.24-34.91,21.84-43.52-3.47-12.94-38.04,28.61-66.76,43.55-24.54ZM800.76,105.08c-15.29-15.27-27.22,8.41-25.21,24.21,2.29,17.96,16.57,28.25,28.74,11.03,7.58-10.72,5.87-25.85-3.53-35.24Z"/>
  <path d="M711.41,146.43v33c0,3.45-8,3.45-8,0v-60c0-2.51,5.73-15.67,7.94-18.06,9.73-10.5,31.4-10.28,39.74,2.38,19.93,30.26-8.73,72.59-39.68,42.68ZM728.89,100.82c-21.89,2.44-22.51,42.55-2.09,47.21,31.25,7.13,28.89-50.2,2.09-47.21Z"/>
  <path d="M209.41,78.43v28c-11.98,1.6-7.23-12.2-7.99-20.01h-18.01v62.01c4.59.51,10.49-.94,14.79.21,2.27.61,4.29,3.12,1.24,4.81-1.94,1.08-23.13,3.13-27.06,3.09s-8.05-.31-11.78-1.98c-2.05-.92-1.43-5.92-1.19-6.13.99-.84,12.93.58,16.01,0v-62h-18.01s0,20.01,0,20.01h-7.99v-28.01h60Z"/>
  <path d="M549.4,94.44v21.99c-10.14,2.12-6.11-8.07-10.85-12.13-6.67-5.71-18.5-3.74-25.1,1.17-9.06,6.75-10.99,25.91-4.95,34.88,7.99,11.84,30.53,7.88,32.9,21.11,2.52,14.1-9.05,21.47-21.98,18.97-.87-7.56,10.58-5.82,13.05-9.92,7.65-12.65-10.39-13.15-17.83-16.29-9.32-3.94-15.64-10.47-17.07-20.92-3.23-23.49,10.27-41.97,34.97-38.98,4.04.49,7.08,3.51,7.89,3.52,1.47.01,5.19-5.05,8.99-3.39Z"/>
  <path d="M477.27,112.28c-.17.21-4.6,2.11-4.87,2.13-2.13.15-3.34-8.1-5.82-10.15-6.57-5.4-23.77-5.08-25.23,5.23-2.37,16.72,23.96,6.71,22.05,15.92-1.11,5.34-22.28-.4-24.05,12.08-1.87,13.21,16.8,13.15,26.08,9.97,2.68-.92,5.39-4.21,6.94-4.35,1.37-.13,6.44,1.21,5.02,4.31-6.16,13.45-47.49,14.28-46.17-10,.37-6.82,6.11-9.23,10.18-13.98-13.6-6.07-9.44-26.69,5.09-28.89,7.84-1.19,13.34,1.28,19.91,1.6,3.43.17,8.81-4.5,10.73,1.58.62,1.97.72,13.85.14,14.57Z"/>
  <path d="M869.41,148.43c2.83.54,13.08-.78,14.01,0,.24.2.86,5.21-1.19,6.13-6,2.68-20.82,2.91-20.82-5.13v-55c2.32-.82,8,.9,8,3v51Z"/>
  <path d="M872.7,66.71c2.74-.83,6.74,1.1,6.67,2.72s-21.05,21.35-22.95,20.99c-2.8-.52-2.98-2.31-.99-4.95,3.06-4.06,13.32-17.57,17.27-18.77Z"/>
  <g>
    <g>
      <rect x="31.67" y="98.64" width=".8" height="54.18" transform="translate(-45.02 21.36) rotate(-22.14)"/>
      <path d="M46.05,159.57l-1.66-3.09c-.4-1-.87-1.96-.96-3.05l1.17,2.03c.46,1.38,1.27,2.65,1.45,4.11Z"/>
      <rect x="58.9" y="124.29" width="46.26" height=".8" transform="translate(-43.38 205.63) rotate(-89.5)"/>
      <path d="M82.56,98.29c-.48.08-.56.3-.57-.26-.02-1.53-.05-3.54.09-5.03.04-.4-.07-.87.42-1.05l.06,6.34Z"/>
      <rect x="54.83" y="161.84" width="22.13" height=".58" transform="translate(-29.29 15.27) rotate(-10.83)"/>
    </g>
    <g>
      <path d="M62.52,7.46c.18.13,1.75,2.3,1.95,2.66,1.54,2.72,0,4.39-.1,7.1-.03.69-.11,1.07.84.92.14-.62.7-2.79,1.05-3.1.68-.61,3.17-1.25,4.13-1.12.63.09,3.56,1.1,3.79,1.55,1.11,2.14-1.84,6.6-1.34,7.66,4.58,3.39,8.96,7.83,10.82,13.37s1.23,13.21,1.02,19.23c-.25,7.09-.9,14.16-1.22,21.25.2,1.41,2.33,2.73,2.2,4.38l-.81,78.97c-.12.56-2.02,1.09-2.73,1.3-9.72,2.89-21.41,4.94-31.48,6.02-.83.09-4.3.78-4.75.13L15.92,94.1c-.42-1.6,1.08-2.89.46-4.93-1.23-4.05-4.36-9.36-6.16-13.43-2.74-6.18-7.88-16.05-8.49-22.5-.42-4.49,1.44-9.56,3.12-13.64L.46,32.27c-.95-2.23-.39-2.71,1.44-3.9,2.79-1.82,3.68-1.19,6.61-.1l2.1,2.62c.83-.62-.83-3.9-1.07-4.84-.76-2.93-.83-4.5.39-7.25.97-2.18,2.6-3.05,4.97-3.15s2.06,3.27,2.97,4.91L31.89,0l24.54,13.75c.38.01.48-.3.55-.59.37-1.4.12-3.64,1.37-4.65.72-.59,3.37-1.61,4.17-1.05ZM56.6,15.45c0-.55-.51-.73-.91-.98-2.78-1.71-5.84-3.08-8.69-4.7-4.44-2.52-9.2-5.82-13.68-8.07-.31-.16-.86-.45-1.18-.32l-13.79,20.22.15,1.56,3.72,11.85c.48-.03.13-1.04.05-1.32-.16-.58-.48-1.08-.61-1.6-.25-1.01-.34-2.06-.58-3.07-.17-.72-.59-1.29-.73-2.18s-.34-4-.15-4.72c.14-.55,1-1.24,1.53-1.4,1.73-.53,3.25,2.46,4.7,3.09.13-1.81-.63-3.55-.22-5.36.2-.87,1.71-3.48,2.47-3.9s4.47-.8,5.04-.24c.83.81.63,5.18,1.08,6.45l.63-3.57c.62-1.6,2.69-.33,3.53.48.96.94,1.16,2.14,2.04,3.05,2.97-5.56,9.83-8.02,15.59-5.29ZM15.53,16.67c-3.27-.03-4.27,1.24-5.12,4.14-.57,1.94-.83,2.18,1.46,2.33.07.46-.69.56-.7.9-.05,1.27.87,2.7,1.05,3.94-.58-.01-.59-.47-.74-.87-.38-.94-.6-2.04-.86-3.02-.15-.55.07-.85-.69-.59l4.42,13.67c.47.89.81,1.84,1.31,2.71.17.29.35.98.74.86-.79-2.39-1.8-4.76-2.53-7.17-.09-.29-.39-1.01.09-1.03l4.3,11.89c.48-.08.64.04.47-.5-.62-1.98-1.87-3.96-2.02-6.13l.78,1.53c.33.7,1.44,4.67,1.98,4.58.2-.03.44-.77.25-1.05-1.74-5.06-3.94-10.04-5.48-15.16-.92-3.04-1.37-4.43-.47-7.55.3-1.05.79-2.28,1.43-3.15l-1.37,5.62c1.15,7.13,4.24,13.74,6.52,20.55l3.18-1.48-3.76-10.72-4.22-14.32ZM61.34,8.48c-.2-.13-2.43.82-2.66,1.28l-2.29,12.08c.86-.11,1.7.31,2.5.44.3.05.36.36.59-.16l1.87-13.64ZM62.44,23.29c.27-3.64,1.06-7.27,1.67-10.88.28-.66-1.71-3.55-1.96-3.51l-2.17,13.56c.5.42.49.09.53-.37.08-.99.06-2.51.8-3.21.08,1.17-.48,2.56-.45,3.69.02.59.31.49.45.06.45-1.39.45-3.35.73-4.84.07-.39.12-1.32.52-1.47.32,2.16-.64,4.56-.7,6.68-.02.56.16.36.59.28ZM32.58,15.14c-1.14.05-2.83-.13-3.73.74-.11.11-1.33,2.23-1.4,2.44-.38,1.15.02,5.93.46,7.09.23.59,1.13,1.38,1.48,2.11,1.7,3.53,2.12,8.14,3.49,11.83l1.29-14.03c-.45-3.13-.48-6.3-1.15-9.38l-1.83,3.97c.76,5.8,1.23,11.6,1.6,17.45-.47.16-.39-.58-.46-.92-.14-.64-.29-1.3-.38-1.95-.2-1.5-.18-3.32-.34-4.84-.34-3.2-.77-6.39-.96-9.6-.18-.49-3.12-.13-3.16-1.31.23-.31,2.44.82,2.98.44.83-.58,1.48-3.1,2.11-4.02ZM36.42,41.26c-.04-1-.04-2.02.03-3.01.41-5.85,1.47-14.05.62-19.7-.06-.42.33-.71-.42-1.01-.37.35-.27.79-.35,1.21-1.36,7.25-1.65,14.77-2.26,22.08l2.38.43ZM37.09,34.2c.75-.96,1.08-2.28,1.67-3.35,1.15-2.07,2.22-2.22,1.93-4.99s-.95-6.04-3.11-7.93c.98,5.51-.06,10.8-.5,16.27ZM56.26,16.67c-2.03-1.48-5.18-1.51-7.53-.87-3.36.92-7.67,4.46-7.22,8.31l1-2.35c2.04-3.78,5.85-5.95,10.18-5.72,1.22.07,2.37.53,3.57.63ZM31.92,40.39c-1.66-5.18-1.8-10.95-5.65-15.07-.88-.94-2.4-2.44-3.38-3.24-.76-.62-1.51-.36-1.17.62.99,2.86,2.5,5.8,3.54,8.74s1.82,6.09,2.95,9.04l3.7-.1ZM55.5,21.73c-.09-1.24.36-2.46.52-3.67.11-.87-1.43-1.16-2.13-1.28-1.85-.32-3.95-.07-5.68.6-3.76,1.45-6.26,5.32-6.49,9.29.21.13,2.89-2.07,3.43-2.39,3.08-1.86,6.76-2.88,10.35-2.55ZM27.08,40.74c.55-.27.38-.49.28-.91-.43-1.81-1.32-4.28-1.94-6.1-.89-2.64-1.96-5.45-3.03-8.03-.21-.51-.41-1.05-.65-1.55-.15-.31-.16-.91-.57-.76.33,1.49.17,2.87.54,4.39.45,1.83,1.25,3.9,1.69,5.72.5,2.08.65,5.1,1.33,6.96.12.32.31.62.68.6-.18-2.34-1.2-4.55-1.58-6.78-.06-.34-.41-1,.09-1.02.39,1.47,1.05,3.04,1.44,4.49.15.56.48,3.1.61,3.21.39.31.54-.06.48-.52-.16-1.26-.78-2.2-.94-3.43,1.08.55,1.09,2.67,1.58,3.74ZM72.9,16.09c-.42-.89-5.24-1.57-4.97-.35.84.08,1.93,1.63,2.51,1.64.53,0,1.78-1.18,2.46-1.29ZM66.84,16.09c-.6,2.79-1.87,5.48-2.73,8.22.01.33,2.55,2.09,2.94,2.71l2.8-8.79c.07-.71-2.68-2.72-3.01-2.14ZM1.07,30.12c1.21.88,3.06.76,4.47,1.46l2.01-2.27c-2.5-1.81-4.23-.69-6.48.81ZM69.5,30.02l3.79-13.43-2.71,1.68-2.8,8.77c.08.82.4.18.51-.14.33-.95.45-2.19,1.21-2.93.19,1.31-1.24,3.34-1.18,4.41.03.56.19.42.64.31.43-2.04.83-4.41,2-6.16-.18,2.28-1.41,4.47-1.77,6.68-.05.29-.2.97.31.82ZM14.77,48.87l-.4-1.37-8.96-15.02c-.41-.57-3.98-1.45-4.13-1.24,3.64,6.72,7.83,13.13,11.71,19.71.36.3.61.35.4-.23-.77-2.11-2.89-4.14-3.54-6.4l2.55,3.56c.29.43.96,1.95,1.13,2.09.07.06.69.09.44-.47-.53-1.23-1.62-2.26-2.08-3.55.73-.3,2.33,3.89,2.87,2.92ZM8.53,29.85c-.31-.22-2.37,1.75-2.46,1.96s.02.43.08.63l9.16,15.47c.31-.82,2.31-2.16,2.2-2.86l-8.97-15.19ZM64.53,19.14c-.83,0-.4.3-.5.73-.13.56-.37,1.11-.18,1.7.33-.07.43-.9.51-1.23.09-.38.46-.68.17-1.21ZM70.07,34.54c-2.95-10.08-14.16-14.64-23.45-9.74-6.09,3.21-10.15,10.48-8.87,17.37.81-.49.18-1.47.18-2.18,0-16.06,21.67-22.93,29.93-9.15.72,1.2,1.03,2.98,2.21,3.7ZM68.8,33.91c-3.99-10.33-16.26-13.02-24.74-6.01-3.96,3.27-5.78,8.48-5.59,13.54.16.1,1.62-.82,1.81-1.07.59-.74-.03-1.66,1.76-2.08.94-.22,6.54.98,6.81,1.6.36.81-1.11,1.39-1.82,1.07l1.02,2.06c1.46.42.94.09,1.26-.87,1.07-3.17,3.02-5.05,5.53-7.16-2.07.5-.41-3.71-2.32-3.05-.85.3-3.96,2.22-4.19,2.99-.55,1.83,2.44,2.18,1.92,3.97-1.27.34-6.97-2.32-7.6-3.44-1.08-1.91.92-3.82,2.29-5.02,2.12-1.86,7.01-4.89,9.85-3.93,2.67.91.07,6.2.6,8.23,1.14-1.48,2.57-6.7,4.57-6.94s4.38,2.44,5.38,3.88c.28.4.6,1.36.79,1.52.27.23,2.16.41,2.67.71ZM54.67,34.02c-.07-1.47,1.26-5.65.31-6.71-.58-.65-3.17-.04-3.98.22-1.9.6-8.21,4.77-8.04,6.9.12,1.5,5.38,3.28,6.64,4.03.27-.76-.93-1.22-1.29-1.67-.74-.9-.93-1.8-.07-2.65s4.46-3.6,5.55-2.57l.88,2.45ZM62.94,75.76c-.49-.36,1.28-2.12,1.58-2.44,2.59-2.81,5.94-5.19,8.65-7.94,7.13-7.23,13.24-18.07,9.46-28.45-1.84-5.04-5.86-9.77-10.33-12.63-.08.86-1.24,2.82-1.1,3.53.07.39,1.51,1.92,1.87,2.48,1.85,2.85,3.31,5.89,3.75,9.3l-2.76-6.47-2.83-4.59c-.88,1.22-1.29,2.85-.62,4.25.12.24.48.11.62.28.36.44.98,1.21,1.25,1.66.69,1.16.93,2.71,2.2,3.54-.07-1.03-.69-2.06-1.14-2.96-.77-1.52-1.7-3.2-2.74-4.53.33-.64.43-.16.66.1,1.53,1.76,2.53,3.93,3.38,6.08.25.64.24,1.41.5,2.12.78,2.15,2.39,4.12,2.37,6.69l.63-3.57c.17-4.09-1.25-7.73-3.17-11.25,1.36.97,2.61,3.19,3.19,4.76,5.83,15.63-13.04,29.68-21.57,40.35-4.61,5.77-8.24,12.42-10.02,19.62-.17.67-1.08,4.88-.97,5.12.16.38,3.49.93,4.15,1.04.95.16,3.25.71,3.99.42,9.5-6.19,19.64-11.58,28-19.31l.16-.38c.24-8.5,1.09-16.98,1.4-25.48.06-1.73.21-3.5,0-5.21l-2.79,5.74c-4.48,7.41-11.37,12.51-17.77,18.12ZM65.14,32.88c-.8-1.76-3.67-5.16-5.77-4.04-.42.22-2.66,4.41-2.71,4.95-.14,1.32,1.46-.8,1.57-.88,1.16-.83,2.02.31,2.77.1.33-.09.95-1.84,2.16-1.48v1.44s1.99-.09,1.99-.09ZM8.99,54.88c-.14-.99-.22-2.15-.18-3.15.06-1.66.59-3.16.58-4.73l-3.68-6.22c-.71,1.27-1.4,3.06-1.8,4.48-3.16,11.3,2,21.02,11.92,26.51,3.01,1.67,6.38,2.67,9.36,4.42-.13.45-.68.06-.96-.01-3.88-.97-9.42-3.33-12.56-5.78l-4.22-3.95,12.43,27.93c7.62,3.88,16.43,4.53,24.64,6.56.28-.06.63-3,.76-3.6.74-3.5,1.76-6.9,3.36-10.1.04-.74-1.84-2.47-2.44-3.06-7.74-7.53-16.77-9.62-25.84-14.43-6.29-3.34-14.1-10.09-13.56-17.92.05-.78.54-1.89.45-2.57-.07-.58-1.14-1.83.02-1.84.73,1.46.13,2.94.27,4.42.34,3.67,1.73,7.18,4.16,9.95.2.22.38.57.73.53-.38-1.75-.69-3.35-.61-5.15.06-1.28.91-3.73.81-4.56-.06-.49-.21-1.1-.82-1.15l-.48,3.56c-.59-1.81.37-3.65-.18-5.45-.08-.07-.31.21-.37.36-.4,1.07-.18,4.33-.21,5.69,0,.51.44.76-.43.79.15-1.37-.18-2.67-.12-4.08.03-.74.76-3.66.3-4.04-.52-.43-.53.47-.58.69-.37,1.64-.34,3.38-.43,5.06-.02.29.08.86-.33.86ZM62.7,32.19c-.38-.12-.89.63-.73.71l.84-.16-.11-.56ZM76.81,47.11l-.88-4.6c-.6-3.13-5.88-7.14-8.85-8.04-6.87-2.07-14.88,1.53-16.75,8.6.56.5.46-.06.59-.33.52-1.09.78-2.1,1.57-3.1,6.64-8.39,21.57-4.58,23.23,6.03l1.08,1.44ZM36.84,43.49c.54-.92-2.75-1.63-3.31-1.73-12.92-2.4-21.38,11.27-16.87,22.7.11.29,1.54,3.42,1.89,2.74-.59-1.56-1.55-3.06-2.02-4.7-3.58-12.47,7.86-24.63,20.3-19.02ZM48,39.92c-1.79.03-4.1-1.32-5.8-.93-.96.22-1.83,1.19-.68,1.02.65-.1,1.23-.29,1.9-.3,1.22-.02,2.43.6,3.72.6.31,0,1.02.11.86-.38ZM74.99,45.15c-2.59-11.08-18.99-13.09-23.54-2.28,1.25.38,1.43-1.11,2.08-1.98,4.57-6.11,14.71-4.76,18.81,1.2.84,1.22,1.04,2.63,2.65,3.06ZM72.34,35.84c-.04-.54-.37-.95-.63-1.4-.16-.27-.25-.81-.63-.67.09.86.22,1.9,1.26,2.07ZM33.66,51.03c.41-.48-2.38-1.56-3.08-1.01-1.02.8.5,2.13.16,3.52-.42,1.73-1.36.06-1.8-.74-.56-1.01-2.57-5.04-2.66-5.92-.25-2.5,3.47-2.61,5.24-2.52.81.04,4.1.84,4.3.76.32-.14.66-1.2.34-1.5-.19-.18-2-.66-2.42-.74-13.09-2.51-21.47,11.95-15.15,23.03.7,1.23,1.44,2.43,2.76,3.07.27-.05.7-2.12.85-2.57.18-.53,1.21-1.47.12-1.36-1.69.18-2.79-1.15-3.26-2.71-.66-2.21-.85-4.6-.45-6.86s2.27-8.14,5.41-5.99c.66.45,4.8,5.2,4.86,5.77.04.43-.49.84-.93.78-1.83-.24-3.04-3.57-3.84.27-.22,1.07-.33,2.55-.02,3.59.7,2.34,2.58-.48,3.21-.45.34.02.51.68.61.73.14.07,2.29-1.27,2.93-1.12-.78-3.1-.37-6.56,2.79-8.05ZM54.04,42.8c.11.06.88-.3,1.42-.13.6.2.1.65-.28.79-1.24.44-5.06.91-6.42.88-1.86-.04-1.73-1.81-2.78-2.69-.84-.71-2.66-1.18-3.74-.94-1.27.29-4.14,2.39-4.8,3.55-.94,1.65-.12,3.94-1.22,5.72-.99,1.59-3.39,2.4-4.15,3.97-.71,1.47-.46,3.37-.09,4.91,3.72-.65,7.44.42,10.47,2.61.67-.12,1.3-6.26,3.02-7.16,1.84-.97,5.26,1.81,7.42.55-.41-1.28-1.12-1.87-1.15-3.32-.01-.58.96-4.82,1.23-5.22.67-1.01,2.36-.6,3.36-1.12.7-.36.83-1.59,1.18-1.92.84-.79,2.4.08,2.97-1.56-1.7-.8-3.79-.46-5.53.13-.24.08-1.57.59-.9.96ZM62.93,37.93c-.09-.05-1.84.08-2.14.12-1.37.19-2.59.68-3.81,1.29l-1.36,1.14c.98-.63,3.17-.05,3.85-.28.26-.09.4-.57,1-.65s2.11.52,2.7-.25c.04-.06-.18-1.34-.24-1.37ZM17.84,46.84c-.56-.03-.6.43-.87.74-3.84,4.46-5.02,9.75-3.23,15.46.38,1.2.92,1.81,2.02,2.38-.01-1.1-.76-2.1-1.03-3.12-1.39-5.19.07-11.15,3.11-15.47ZM67.39,40.23c.22-.25.12-.81-.31-1.08-1.32-.82-2.83,1.28-3.2-.83-.52.11-.03.79-.45,1.27-.24.27-.61.37-.95.44l2.91.52c.41-.01,1.85-.16,2.01-.33ZM35.87,46.01c-.08-.07-1.82-.56-2.13-.63-1.81-.39-3.82-.54-5.6.07-1.14.39-1.24.93-.91,2.01.59,1.94,2.19,4,2.86,5.98.47,0,.18-.75.1-1.04-.27-.99-.97-1.73-.12-2.73,1.1-1.31,3.86.76,4.47.6.07-.02.37-.46.31-.63l-.87.02c-.13-1.38.22-2.81,1.88-2.23-.26-.37.06-1.37,0-1.42ZM62.29,40.65l-1.78-.24c.19.54,1.66,1.07,1.78.24ZM71.39,42.95c.25-.41-2.66-3.24-3.06-3.17-.14.03-.52.95-.79,1.16-1.02.79-3.09.05-4.31.11,1.39.97,3.47,2.27,5.2,2.16,1-.06,1.97-.59,2.96-.26ZM28.12,55.27c0-.48-.38-.68-.65-1-.88-1.04-2.96-3.48-3.96-4.16-.9-.61-1.27-.39-1.94.35-2.15,2.39-3,7.93-2.1,10.95.24.82,1.27,2.94,2.15,2.91,2.14-.07,2.8-2.09,4.5-2.89l-1.92-.2c-.59-.8-.82-1.74-.95-2.71-.44.74-2.29,1.41-2.73.64-1.02-1.75,2.02-1.48,3.01-.69-.26-1.1.2-4.19,1.35-4.53.95-.29,2.9,1.87,3.24,1.35ZM63.67,55.4s.16-.05.25-.24c.13-.28.86-3.4,1.45-2.97.3.22-1.05,2.36-.58,3,.75-.35.37-1.56.76-2.03.3-.36.66-.34.61.17-.06.66-1.3,3.8-1.25,4,.02.08.57.41.63.31l1.24-4.86c.43.33.04,1.06.14,1.57.14.74,1.24,2.26,2.14,2.04-.21-.99.34-1.9.78-2.75.36.37,0,1.59.51,1.92,1.01.66,1.62-3.33,1.88-3.69.15-.21.45-.37.57-.1l-.35,1.94,1.05-2.8c.49,1.26-.6,2.65-.7,3.77-.05.55.23.39.61.29-.1-1.2.4-2.57.9-3.64l.3.81.73-.72.38.5c.02-.83.84-1.92.88-2.69.03-.64-1.69-2.78-2.31-3.24-.3-.23-3.08-1.92-3.27-1.97-.76-.21-2.8.4-4.01.2-1.67-.27-4.26-3.01-5.82-1.78-.32.25-.42.9-.85,1.12-.61.31-1.45.14-2.01.57-.35.27-.41,1.04-.72,1.45-.87,1.16-2.65.91-3.91,1.34l-.5,3.54c.67-.24.14-1.86,1.15-1.52-.53,1.56-1.23,3.24-.79,4.92l1.04-4.51,1.27-2.29c.32.29-.07,1-.15,1.47-1.07,1.13-1.39,3.51-1.32,5.04.01.3-.04,1.06.43.9-.27-.98-.06-1.99,0-2.98.02-.34.32-.33.52-.29-.05,1.4.38,2.66.19,4.01,1.13-.16.53-1.23.57-1.92.03-.55.13-1.13.19-1.69.86.3.33,2.26.59,3.06l.32-2.58.71-1.08-.42,3.83c.77.03,1.75.39,2.45.69-.04-.28-.12-.56-.16-.84-.12.11-.45.43-.5.38-.28-.37.07-1.4.01-1.44-.56-.41-.57.71-.7.86-.21.23-.59-.1-.61-.17-.03-.1.12-1.93.16-2.03.12-.31.63-.2.76-.36.1-.13.85-2.2,1.17-2.85s.28-1.68,1.12-2.15l-2.13,5.47c.08.82.4.18.51-.14.27-.79.27-1.81,1.04-2.32-.1,1.66-1.04,3.06-.82,4.78.52-.5.34-1.73.71-2.55.13-.3.34-.87.73-.47-.17,1.06-.55,2.07-.78,3.12-.1.44.32.73-.51.74.54.24,1.14,1.22,2.16.74-.4-1.72.17-3.84,1.32-5.16l-1.29,5.3,2.69.49-.21-1.11-.78.44c-.05-.28-.13-.56-.16-.84-.18.32-.27.99-.76.58.22-1.62.56-3.47,1.31-4.93.13-.25.37-1.08.78-.8.22.15-1.51,3.75-1.32,5.16ZM35.36,47.82c-.31-.2-1.18.85-.9,1.33.08.07,1.37-1.01.9-1.33ZM22.36,58.39c-.2-.11-1.14-.08-1.44-.01-.61.92,1.98.32,1.44.01ZM53.65,55.87c-.94.1-1.94.51-2.88.49-1.21-.03-4.11-1.69-5-.87-.07.07-.77,1.59-.86,1.85-.42,1.24-.56,2.76-1.1,4.03,1.16.98,1.54,2.5,2.36,3.73.54-.05.13-.61-.01-.87-.42-.75-1.17-1.37-1.18-2.36l1.43,1.46c.12-.51-.99-1.76-.93-1.84.02-.03.53-.12.55-.11.27.21.87,1.67,1.13,2.09.19.29.52,1.06.9.99l-1.52-3.46c1.07.15.85,1.72,1.82,1.96l-.98-2.12c1.13-.33.81,1.3,1.71,1.4l-.93-1.84,1.66,1.13c.12-.51-.98-1.76-.93-1.84.52-.81,1.08,1.65,1.61.84.04-.06-.87-1.22-.82-1.28l1.22.34-.21-1.12c1.13.36.67-.01.9-.34.32-.46.8-.56.5-1.37.49-.22.12.72.78.42.34-.16,1.02-.8.78-1.29ZM34.01,59.63l-4.46.85c-.32.06-2.56,1.53-2.98,1.86-1.69,1.34-2.87,3.06-3.58,5.08-.3.86-1.15,2.68.53,2.3.79-5.71,6.19-9.79,11.85-9.78l-1.36-.32ZM54.82,69.51c.58-.5.8-.11,1.44.01-.22-.4.72-1.71.85-1.61l-.51,1.83,1.01-.77.22,1.12c.23.2,2.78-.96,1.96-1.82l-.9,1.33-.35-.6c.38-.66,1.06-3.06,1.47-3.36.11-.08.45-.16.44.06l-.49,1.97,1.2-1.24-.71,2.3c.28-.1.76.06.8-.35.09-.94.5-1.56.61-2.45.22-1.8-.17-.96-1.09-1.77-1.46-1.3-2.52-3.52-3.65-4.98-.44-.56-1.24-.64-1.36-1.39,1.87.16,1.93,1.51,2.74,2.57.59.78,1.89,2.44,2.54,3.05.33.31,2.25,1.46,2.59,1.54.49.12.34-.27.4-.44.28-.77.29-1.68.79-2.38l.3.81.5-.39c.33.17-.34,1.87-.59,2.17s-1.08-.07-.77,1.27c1.09-1.08,2.15-2.15,1.87-3.82l.55,1.34c.84-.6.26-1.82-.13-2.49-.3-.53-2.08-2.81-2.52-3.07-.89-.54-2.27-.32-3.24-.59-1.28-.36-2.89-1.95-4.3-1.38-.91.37-2.99,2.07-3.69,2.85-.88.99-1.24,2.24-1.88,3.09-.42.56-1.28.84-1.58,1.59,1.25.73,1.04-.9,2.09-1.12.25.17-1.73,3.24-1.84,3.72-.06.26-.06.77.36.61.1-1.07.69-2.15,1.47-2.88.17,1.43-1.53,2.57-1.25,3.99.5-.24,1.3-3.44,2.03-2.98-.34.78-.63,1.88-.98,2.61s-1.08.58-.45,1.99l1.08-2.78.79-1.04c.26.55-.03.79-.19,1.2-.36.91-.83,2.49-1.61,2.91-.06.06.91,1.18,1.04.94-.17-1.53.77-2.95,1.35-4.3.57-.2.5.04.41.52-.25,1.34-1.32,2.72-1.7,4.06.5,0,.64-.38.88-.74.55-.85.89-2.03,1.32-2.93.13-.28.63-.53.66-1.06,0-.1-1.41-.09-.43-1.5.46.25.49,1.02.71,1.39.15.25.59.07.63.24.09.45-.55,2.29-.96,2.63-.03-.49.18-1.21-.13-1.42-.43.57-.52,1.19-.66,1.86-.4.37-.42.7-.68,1.12-.09.14-.98.47-.39.81.07.04.6,0,.89.12.15.06.34.55.66.45.05-.97.42-1.37.41-2.39ZM46.75,69.61c-.17-4.59-5.55-8.56-9.8-8.95-6.3-.58-12.15,3.26-12.88,9.68.52.47.76-.28,1.11.51.39-1.01.52-1.94,1.03-2.94,3.86-7.42,13.92-7.45,18.47-.79.17.25,1.58,3.31,2.07,2.49ZM67.38,56.71l-1.04-.95-.07,1.17,1.11-.21ZM32.11,64.04c-2.75.73-4.82,3.34-5.61,6.01-.26.9-.33,1.32.7,1.57-.25-1.28.42-3.99,1.64-4.58.7-.34,1.7-.18,2.27-.64.18-.14,1.21-2.23.99-2.36ZM40.37,67.94c.42.03,1.15.58,1.78.24l.34-1.22-.29,1.5c.9.12.99-.63.8-1.41-.16-.66-.77-1.29-1.44-1.43-.29-.06-.6.17-.69.11-.09-.05-.09-.46-.33-.44s-.51.3-.78.31c-.52.02-1.22-.35-1.83.2l.12-.89c-.52-.06-1.29.05-1.75-.11s-.6-.71-.8-.79c-.22-.09-.58.07-.85.02-.31-.06-.6-.3-.78-.32-.59-.04-.6,1.12-.82,1.55-.27.52-1.04,1.25-.95,1.78l1.7-.18c.41.9-.21.8-.3.98-.03.06.24,1.02-.11,1.4.95.02.39-1.21.99-1.63.7-.49.18.74.07,1.14,1-.07.32-1.21,1.23-1.1-.37,1.45.42,1.01.7-.13l.02.86c.7-.23,1.7-.18,2.35-.43.25-.09.03-2.12.75-.74.1-.91.47-1.09.7-.14-.12.21-.19.56-.21.58-.12.1-.76-.22-.85-.09-.02.99.66.3,1.22.34ZM68.05,57.16l-.19,1.33.49.07.19-1.33-.49-.07ZM69.47,60.07c.84-.73.89-2.31,1.08-3.38-.71.83-.96,2.31-1.08,3.38ZM67.55,59.27l-.19,1.33.49.07.19-1.33-.49-.07ZM30.79,69.2c.13.06.68-.22.84-.16.1.04-.45,1.16-.35,1.22.88.49.26-1.88,1.21-1.24l.26.67.43-1.52c-1.38.17-2.44-.82-3.86-.08-.66.34-1.31,3.11-1.17,3.93l1.28-3.13.07,1.14c.08.07.33-.28.5-.38-.03.25.02,1.41.18,1.7.48-.62.83-1.34.6-2.14ZM49.8,64.41c-.53,0-.86.46-.67.99l.67-.99ZM48.5,66.68c-.06-.56-.15-1.24-.82-1.29l.27,1.39.56-.11ZM48.93,67.83c-.17-.12-.51-.09-.69-.22-.4-.28-.45-.8-.86-.72,1.07,2.11-1.32,4.97,2.75,3.8-.53-.74-.56-2.39-1.2-2.87ZM29.37,72.36c-.15-.7.7-1.36-.18-1.7-.08.31-.43,1.79.18,1.7ZM46.33,70.94c-1.32-.82-4.16-1.63-5.72-1.75-3.81-.29-7.36,1.03-10.35,3.29.5,1.44.91.36,1.57-.03,8.23-4.85,18.47-.78,19.77,8.94.42-.15.43-.64.47-1.01.33-3.3-3.02-7.74-5.74-9.44ZM61.61,68.79c.95-.85,1.13-2.46,1.03-3.66l-1.03,3.66ZM63.38,65.45l-.56,1.55.4.15.56-1.55-.4-.15ZM49.14,79.12c.41,1.11.61,3.18.85,4.46,0,.04-.51.59,0,.72.19-.39.66-.78.8-1.15.92-2.3-1.26-6.61-2.82-8.37-3.91-4.42-11.7-4.85-16.38-1.4,1.11,1.3,2.31-.03,3.53-.39,5.31-1.57,11.99.65,14.03,6.13ZM35.75,74.03c-1.04-.58-.16,2.06-.01,1.44-.28-.37.08-1.41.01-1.44ZM36.59,73.87c-.66-.37-.6.85-.34,1.22.21.29.41-1.18.34-1.22ZM37.42,73.71c-.98-.03-.3,1.23-.62,1.78-.11.19-.56.08-.42.3.72.42,1.84,1.52,2.71,1.35.66-.13,1.59-1.33,2.49-1.33-.52-.55-.18-1.27-.38-1.95l-.79,1.88-.51-1.92c-.12.02-.17,1.41-.25,1.78-.05.23-.04,1.07-.58.68-.11-.08.42-2.22.21-2.64-1.12.45-.07,2.2-1.05,2.8-.2-1-.15-2.03.3-2.94-1.23-.02-.65.61-.78,1.53-.05.36,0,1.21-.41,1.29l.08-2.61ZM55.81,70.19l-1.13,1.66c.92.1,1.13-.96,1.13-1.66ZM53.45,72.95c-.38-.64-3.64-1.77-3.99-1.25.62,2.25,2.16,1.7,3.99,1.25ZM56.76,70.59c-.62-.34-.53.85-.92,1.19.71,1,1.02-1.13.92-1.19ZM57.44,70.63l-.56,1.55.4.15.56-1.55-.4-.15ZM42.26,74.81l-.44-.78v1.44s1.22-1.1,1.22-1.1l-.78.44ZM58.81,70.77l-1,1.36.35.5.65-1.85ZM51.6,74.97c.23.14.69.2.96.14l4.76-1.6c-1.92-1.15-4.18.38-6.26.48-.1.14.37.87.54.98ZM45.36,75.94c-.28-.44-.83-.81-1.34-.57-.48.63-4.13,2.17-4.04,2.61l2.49,1.69.54-.97.79,1.87-.18-1.7c1.27.3.43,2.25,1.56,2.88l-.67-2.76c.37-.68,1.52,3.39,1.72,3.72.77.46.41.08.25-.37-.23-.63-.52-1.19-.53-1.89,1.18.58.93,2.82,1.64,4.02.48-.08.08-1.3,0-1.6-.19-.71-.58-1.3-.69-2.02l.47.19,1.54,4.33c-.22-.61.05-1.29-.06-1.86-.16-.85-1.16-2.18-1.16-2.93,0-.22.55-.24.53-.45-.02-.28-.84-2.1-1.07-2.34-.6-.65-1.2-.08-1.86-.11-.85-.04-1.58-.5-2.49-.09-.13-.54-.24-.54.32-.65,1.12-.22,2.18.37,3.31-.05l-1.55-.57.5-.38ZM56.61,74.37c-.22.07-.54.04-.69.13-.79.47.34,1.44.69-.13ZM55.24,74.95c-.69-.32-2.36,1.19-3.31.6.08.72.4,1.61,1.2,1.79v-1.45s.86,2.15.86,2.15l-.28-2.26.96,1.26-.18-1.7c.32-.2.9,1.25,1.27.62.06-.1-.43-.98-.52-1.02ZM52.69,78l.21,1.12.56-.11-.21-1.12-.56.11ZM84.36,80.59c.08-.17-.12-.37-.21-.52-.14-.24-.59-1.04-.92-.97l.15,2.28c.16-.27.96-.73.99-.79ZM18.45,93.8c.06-.09-.69-1.87-1.21-1.79l-.29,1.5,1.5.29ZM70.56,106.68c-14.08-2.6-28.23-4.94-42.22-7.98-3.69-1.08-7.29-2.39-10.84-3.85l29.08,71.26c7.07-7.96,14.36-15.76,21.1-23.98.82-10.75,2.16-21.48,2.87-32.24.04-.57.28-2.97.01-3.21ZM83.77,158.99l.59-76.94c-8.28,8.57-19.03,14.19-28.99,20.57l16.21,3.44.28,1.58c-1.26,11.81-1.72,23.77-3.41,35.5-.91,1.18-2.2,2.32-3.07,3.49-.16.22-.41.43-.27.74l18.67,11.62ZM83.15,160.27c.4-.54-2.37-1.73-2.69-1.93-4.25-2.69-8.48-5.34-12.78-7.95-.74-.45-2.8-2.17-3.44-2.11l-16.5,18.62,3.56-.24c9.22-1.36,18.54-3.07,27.6-5.27,1.36-.33,2.73-1.07,4.25-1.12Z"/>
      <path d="M30.79,69.2c-.23.22-.53.29-.78.44.05-.36.34-.67.54-.97.29-.08.16.49.24.53Z"/>
      <path d="M55.72,48.55l1.41-1.71-.12.89,1.14-.07c-.3.56-1.23.26-.93,1.19,1.42.47.51-.93,1.79-1.21-.37.68-.43,1.1-.52,1.83l1.4-1.71-1.11,2.52c-.63.3-.33-.52-.3-.81-.65,1.25-1.49.29-1.81.36-.51.11-.34,1.45-.38,1.79-.06-.02-.26.09-.49,0-.14-.05-.26-.36-.45-.4.01-.39.07-.78.07-1.17l.66.45.37-1.08-.86.02c.11-.29.07-.6.12-.89Z"/>
      <path d="M54.71,68.96c0,.18.1.38.11.56-.64.56-.57,1.36-1.07,1.94-.1-.63.06-1.43.18-2.06.25-.24.62-.3.78-.44Z"/>
      <path d="M40.37,67.94c-.06-.28-.09-.56-.16-.84.19-.33.11-.68.45-.66.16.56.31,1.22-.29,1.5Z"/>
      <path d="M52.95,86.91c-2.59,3.93-3.85,8.14-5.26,12.56-.07.21-.03,1.07-.58.68-.09-.06.26-1.76.33-2.08.72-3.45,2.49-7.63,4.65-10.42.26-.34.33-.76.87-.74Z"/>
      <path d="M72.35,88.69c-.61,1.16-2.11,1.76-3.05,2.66l-8.37,5.59c.37-.87,1.4-1.48,2.15-2.06,2.06-1.58,4.51-3.24,6.68-4.68.82-.54,1.64-1.22,2.59-1.51Z"/>
      <path d="M81.8,62.62c-1.32,2.99-3.76,6.11-6.25,8.24-.32.27-.52.65-1,.65,1.25-1.78,2.91-3.28,4.25-4.99.77-.98,1.37-2.17,2.13-3.16.26-.34.33-.76.87-.74Z"/>
      <path d="M71.78,76.67c.05.5-.62.34-1,.89-.3.44-.87,2.42-.45,2.85.87-.88.83-2.13,1.42-3.16.7.82-1.19,4.11-1.81,4.1-.43,0-.46-.43-.46-.79-.01-1.04.74-4.52,2.31-3.89Z"/>
      <path d="M57.93,82.78c-.63,1.07-1.51,1.9-1.7,3.21.56.03.6-.43.87-.74.56-.65,1.11-1.36,1.63-2.04.2-.08.25.26.22.39-.15.63-2.47,3.54-3.17,3.06-.46-1.47.79-3.32,2.15-3.87Z"/>
      <path d="M75.45,83.76l5.45-6.24c.21.49-.15.72-.37,1.08-1.14,1.93-3.04,4.22-5.08,5.16Z"/>
      <path d="M80.87,80.42c0,1.11-5.37,6.54-5.73,6.29-.38-.27.1-.76.39-.81l5.33-5.48Z"/>
      <path d="M64.66,83.23c.27,1.26-.8,2.68-1.64,3.61-.42.46-.82,1-1.51,1.03l2.11-2.57c-.61-.28-1.14.98-1.19-.2l2.24-1.87Z"/>
      <path d="M77.62,70.93c-.22-.51.14-.72.4-1.06.32-.43,3.26-4.46,3.48-4.3.21.5-.15.72-.37,1.08-.29.48-3.2,4.51-3.51,4.28Z"/>
      <path d="M75.15,59.56c.69-.41,1.13-1.07,1.54-1.74.52.2-.66,1.86-.91,2.05-.4.31-.89.32-1.36.41-.21-1.45.91-2.67,1.92-3.54l-1.19,2.83Z"/>
      <path d="M69.79,88.89l-2.32,1.94-3.56,2.07,1.53-1.5c1.47-.77,2.74-2.02,4.34-2.51Z"/>
      <path d="M54.77,94.94c.48.29-1.53,1.92-1.24,2.55l1.6-1.46c.69,1.3-.92,2.15-2.05,2.12-.22-.62-.09-1.29.22-1.85.14-.25,1.24-1.5,1.48-1.36Z"/>
      <path d="M61,74.68c-.29.72-1.15,1.59-1.75,2.08-.46.37-.97.46-1.38.76-.62.46-.73,1.36-1.52,1.51-.09-1.62,1.74-1.99,2.64-2.69.56-.43,1.08-1.55,2.01-1.66Z"/>
      <path d="M80.02,62.87c-.16.23-1.05,1.34-1.43,1.09l3.52-5.73c.08.68-.32,1.53-.63,2.12-.32.62-1.08,1.98-1.46,2.52Z"/>
      <path d="M77.1,86.33l3.59-3.86c.45.34-1.26,2.15-1.57,2.45-.55.52-1.31,1.15-2.02,1.42Z"/>
      <path d="M67.65,65.62c-.58.93-1.08,1.96-1.64,2.89-.22.37-.29.77-.84.76-.21-.49.15-.72.37-1.08.34-.58.83-1.29,1.24-1.83.26-.34.33-.76.87-.74Z"/>
      <path d="M80.59,41.19l-.47-.92-.05-3.31c.8,1.38.43,2.73.52,4.23Z"/>
      <path d="M78.67,77.94c-.22-.13,2.07-2.72,2.3-3.04.22.5-.15.72-.37,1.08s-1.45,2.23-1.94,1.96Z"/>
      <path d="M75.51,76.53c.06.04-.29.99-.06,1.16.66.5.33-.8.73-.71.7,1.54-.96,2.02-1.29.44-.07-.34.16-1.19.63-.89Z"/>
      <path d="M80.6,72.96c.49.35-1.3,2.25-1.91,2.09l1.91-2.09Z"/>
      <path d="M80.24,49.92c.2.13-.41,1.9-.93,1.91-.65.02-.37-.48-.16-.83.15-.26.76-1.29,1.09-1.07Z"/>
      <path d="M69.7,65.8l.12-.89-.87.74c-.2.08-.24-.25-.22-.39.33-1.54,2.73-.88.97.53Z"/>
      <rect x="78.85" y="69.55" width="2.61" height=".63" transform="translate(-25.13 84.75) rotate(-49.12)"/>
      <path d="M54.37,82.31c.46.32-.97,1.89-1.35,1.99-.37-.27.99-2.24,1.35-1.99Z"/>
      <path d="M81.1,40.8c-.14-.54-.32-1.2.29-1.5.14.54.32,1.2-.29,1.5Z"/>
      <path d="M30.48,85.72l1.73,1.56,1.26.47-2.24-2.95c-.94-1-1.41-1.14-2.79-.71.24-1.06,1.65-.9,2.37-.46.18.11,2.81,2.97,2.93,3.19.4.7.43,1.61-.55,1.53-.55-.04-2.84-1.76-2.71-2.62Z"/>
      <path d="M39.3,82.01l-7.83-3.63-.81-.78c1-.12,9.14,3.68,8.64,4.41Z"/>
      <path d="M19.21,76.61c-.45.18-.78-.1-1.17-.24-1.73-.6-4.49-2.28-5.89-3.47-.55-.47-1.3-1.16-1.52-1.87,1.72,1.1,3.26,2.46,5,3.53,1.13.69,2.57,1.16,3.58,2.05Z"/>
      <path d="M45.97,89.69c-1.57-1.2-2.94-2.68-4.5-3.9-1.18-.92-2.58-1.58-3.67-2.62l2.35,1c2.11,1.53,4.54,3.19,5.82,5.52Z"/>
      <path d="M40.55,99.1c-2.07,0-4.07-.91-6.11-1.17l-1.77-.78c1.51.04,3.22.41,4.68.78,1.02.26,2.41.51,3.2,1.17Z"/>
      <path d="M17.04,69.81c-.34.46-1.82-1.05-2.23-1.14-.23-.05-.53.22-.83.14-.64-.17-1.5-1.17-1.53-1.88l1.19.93c.08-1.06-1.67-1.52-1.56-2.88l4.96,4.82Z"/>
      <path d="M28.5,96.49c-2.53-.22-5.34-1.23-7.43-2.62.95.08,2.04.51,2.95.82,1.16.4,2.36.82,3.51,1.25.34.13.82.13.96.54Z"/>
      <path d="M18.92,78.11c-1.41-.14-3.22-1.13-4.41-1.89-.88-.57-2.02-1.28-2.45-2.28l6.86,4.17Z"/>
      <path d="M45.68,91.19l-5.24-4.77c.51-.22.72.14,1.06.4,1.52,1.16,3.27,2.69,4.18,4.38Z"/>
      <path d="M26.35,94.31c-.77.48-6.6-1.78-6.21-2.27l5.25,1.73.96.54Z"/>
      <path d="M24.53,92.35c-1.44-.51-2.95-.95-4.29-1.72-.37-.21-.83-.14-.81-.77,1.41.55,2.95,1.01,4.29,1.72.38.2.82.16.81.78Z"/>
      <path d="M45.05,86.4c-.11.18-2.73-1.92-3.01-2.17-.41-.37-1.01-.82-1.13-1.37l1.96,1.22,2.18,2.32Z"/>
      <path d="M26.77,90.47c.05,1.76,1.51.14,1.91.94.74,1.46-1.82,1.32-2.39-.41-.18-.54.02-.46.48-.52Z"/>
      <path d="M7.03,57.05c.18.16.37,1.38.4,1.74.02.25-.49.29-.67.27-.73-.07-.76-2.08-.95-2.7l1.22.69Z"/>
      <path d="M22.12,87.32c-1.19-.06-2.66-.58-3.67-1.2-.37-.22-.77-.28-.76-.84,1.4.77,3.24,1.02,4.43,2.04Z"/>
      <path d="M22.88,89.77c-1.61-.09-3.29-.92-4.43-2.04l2.59,1,1.84,1.04Z"/>
      <path d="M17.63,78.94c.14.52-.51.37-.8.29-1.05-.29-2.94-1.3-3.35-2.38,1.38.66,2.6,1.79,4.15,2.1Z"/>
      <path d="M21.46,79.36c.16.13.39,1.12.97,1.26.71.17.03-.88.61-.55,1.03.59.35,1.2-.75,1.1s-1.77-2.55-.83-1.81Z"/>
      <path d="M39.39,97.59c-1.23-.02-2.97-.15-3.94-.97,1.25-.09,2.94.16,3.94.97Z"/>
      <path d="M41.71,93.1c-1.44-.34-1.12-2.27-1.8-3.41.37-.04.91.9,1.03,1.16.32.69.35,1.57.78,2.25Z"/>
      <path d="M19.48,84.07c.16.32.16.75-.31.63-.35-.09-2.95-1.57-2.8-1.77l3.11,1.14Z"/>
      <path d="M41.58,95.44c-.79-.2-1.02-1.41-1.26-2.07.92.23,1.16,1.27,1.26,2.07Z"/>
      <path d="M17.83,81.5c-.95.13-1.92-.59-2.55-1.24.84.05,1.96.67,2.55,1.24Z"/>
      <path d="M38.24,88.57l.65,1.9c-.6-.06-1.83-1.96-.65-1.9Z"/>
      <rect x="4.87" y="48.8" width="1.65" height=".43" transform="translate(-42.33 37.68) rotate(-70.08)"/>
      <path d="M36.59,54.23c-.34-.75.4-.55.6-1.16.24-.75.02-1.82.4-2.64.71-1.53,2.89-2.27,4.35-1.39.91.55.74,1.48-.06,1.16-1.22-.49-1.49-1.23-2.98-.09-1.68,1.29-.13,3.66-2.31,4.13Z"/>
      <path d="M44.02,43.28c1.15.58-1.03.51-1.13.55-.34.13-.61.56-1.09.73-.98.35-2.02.15-2.81,1.12-.44-.32.66-1.44,1.05-1.6.66-.27,1.19,0,1.61-.13.66-.21,1.27-1.22,2.36-.67Z"/>
      <path d="M50.27,47.28c-.18.25-1.19-.32-1.66-.26-.69.08-1.13.83-2.1.99-.55.1-.45.07-.53-.48,1.15-.38,2.22-1.48,3.54-1.11.29.08.91.63.74.87Z"/>
      <path d="M51.3,51.12c-.85.43-1.68-1.77-1.54-2.01,1.1-.18,1.45,1.18,1.54,2.01Z"/>
      <path d="M47.73,52.09c-1.15.18-2.26.37-3.29.92.17-1.19,2.53-1.77,3.29-.92Z"/>
      <path d="M38.51,56.75c.17.67.18.47-.32.63-.6.19-1.15.47-1.75.63-.11-1.22,1.16-1.47,2.07-1.26Z"/>
      <path d="M33.34,56.87c-1.24.46-.38-2.03.13-2.34l-.13,2.34Z"/>
      <path d="M69.93,51.89c-.87-.29-1-1.57-1.46-2.32-.38-.63-1.22-1.54-1.81-1.98-.14-.11-2.36-1.04-1.11-1.21,1.44-.2,4.7,3.88,4.37,5.51Z"/>
      <path d="M63.11,49.44c.33.23-.86,2.15-1.01,2.59-.29.87-.42,2.25-.64,3.22-.05.22-.04,1.1-.58.69-.5-.39,1.25-5.02,1.61-5.83.17-.38-.13-.68.61-.66Z"/>
      <path d="M63.88,44.39c.34-.22.62-.57.97-.2.22.23.84,1.19.26,1.4-.86.32-2.49-1.52-1.4-2.04l.16.84Z"/>
      <path d="M72.02,47.74l.4-.94c.35.52.46,1.12-.2,1.45-.9.45-1.98-.94-1.15-1.77l.96,1.26Z"/>
      <path d="M62.32,43.82l-.48.52.81-.29.21,1.11c-1.86.65-2.5-2.95-.54-1.34Z"/>
      <path d="M68.09,45.31c.12,1.3.31.72,1.22.35.5.74-.45,1.55-1.09,1.08-.41-.29-1.17-1.49-.13-1.43Z"/>
      <path d="M75.35,48.55c.37.73,1.08,1.77-.18,2.05-.1-.07.36-.8.02-1.11-.09-.08-.71.2-.59-.36.07-.3.41-.6.75-.58Z"/>
      <rect x="60.4" y="49.53" width="2.92" height=".56" transform="translate(-5.84 91.34) rotate(-70.37)"/>
      <path d="M59.52,45.8c-.53.47-.9,1.59-1.48,1.3l.37-1.08c-1.45,1.62-.53-.38.21-1.19.32.55.85.33.91.98.2-.18.57-.66.81-.3l-1.1,1.8c-.16-.6.35-.83.29-1.5Z"/>
      <rect x="67.42" y="54.17" width="2.54" height=".53" transform="translate(-2.84 105.1) rotate(-73.71)"/>
      <path d="M60.88,49.87c-.2-.46.13-.77.25-1.17.1-.32.14-.96.49-1,.21.78-.08,1.68-.74,2.16Z"/>
      <path d="M68.31,52.49s-.17.96-.22,1.19c-.05.21-.03,1.11-.57.69-.2-.15.13-.94.21-1.2.07-.21.03-1.07.58-.68Z"/>
      <path d="M70.67,49.73c-.17-.48-.18-.97.34-1.22.35.69.6,1.03-.34,1.22Z"/>
      <path d="M73.62,50.03l-.83.16c-.43-1.83-.02-1.15.83-.16Z"/>
      <path d="M70.76,51.73s-.38.06-.55.11c-.28-.19.26-1.14.62-1.27.04.22-.01,1.07-.07,1.17Z"/>
      <path d="M66.87,52.48c-.07-.04.48-1.47.62-1.27.34.51-.17,1.52-.62,1.27Z"/>
      <rect x="65.4" y="50.4" width=".57" height=".85" transform="translate(-8.38 13.25) rotate(-10.83)"/>
      <path d="M54.5,48.2c-.19-.48.2-.99.62-1.27.19.48-.2.99-.62,1.27Z"/>
      <path d="M65.56,48.69c-.19.59.04,1.04-.68.99-.18-.49.11-.97.68-.99Z"/>
      <path d="M71.88,51.52c-.19.59.04,1.04-.68.99-.18-.49.11-.97.68-.99Z"/>
      <path d="M74.48,46.98l-.67.99c-.26-.89-.25-.91.67-.99Z"/>
      <path d="M64.62,48.29c.25.31-.26,1.06-.39.94l-.16-.83.56-.11Z"/>
      <path d="M60.07,47.13l.67-.99c.19.53-.15.98-.67.99Z"/>
      <path d="M63.46,46.77l-.56.11c-.17-.4.01-.6.26-.91l.3.81Z"/>
      <path d="M57.06,67.64c.15-1.33.85-2.89,1.53-4.05.29,1.34-.65,3.08-1.53,4.05Z"/>
      <path d="M58.7,67.54c-.09.16-.88.83-.77.08.09-.66,1.2-2.75,1.66-3.36.32.95-.33,1.58-.67,2.34-.13.29-.07.66-.22.93Z"/>
      <path d="M61.12,60.22c-1.35.46-1.6-.15-1.71-1.4,1.06-.33,1.67.39,1.71,1.4Z"/>
      <path d="M57.88,62.86c.32.26-.28,2.9-1.19,2.82.18-.19.53-3.35,1.19-2.82Z"/>
      <path d="M55.17,60.78c-.33.35-.6.74-.95,1.05-.32-.26.68-2.62,1.32-2.13-.4.33-.28.73-.37,1.08.23-.24.46-.54.73-.72.42.35-.63,2.53-1.19,2.83-.02-.7.29-1.39.46-2.11Z"/>
      <path d="M56.38,62.57c.2-.18.57-.65.81-.3-.21.2-.63,2.89-1.27,2.41-.09-.07.4-1.65.46-2.11-.38.34-.57.76-.95,1.05-.34-.91.48-1.5.88-2.19.36.1.11.84.07,1.14Z"/>
      <path d="M54.05,60.99c-.32.16-.75.16-.63-.31.15-.57.84-1.71,1.32-2.13l-.69,2.44Z"/>
      <path d="M55.55,68.79c-.25-.18.61-2.06,1.02-2.22.35.46-.56,2.55-1.02,2.22Z"/>
      <rect x="62.51" y="60.97" width=".74" height="1.48" transform="translate(-8.73 113.02) rotate(-80.09)"/>
      <path d="M53.86,64.5c-.24.17-.88-.08-.91-.26-.05-.25,1.35-1.36-.64-.31l.76-1.3.79,1.87Z"/>
      <path d="M63.42,58.63c.65.52-1.08,1.49-1.11.21.41.21,1.07-.25,1.11-.21Z"/>
      <rect x="52.13" y="59.97" width="1.8" height=".41" transform="translate(-26.59 69.88) rotate(-55.56)"/>
      <path d="M52.82,62.1c-.11.49-.44,1.04-.96,1.05.11-.49.44-1.04.96-1.05Z"/>
      <path d="M7.85,30.84c.32.28,1.39,2.57,1.76,3.13-.82-.41-1.85-1.84-2.2-2.66-.24-.56.37-.54.44-.47Z"/>
      <path d="M23.38,56.17c-1.04.22-2.73.24-2.82-1.19,1.1-.92,2.54-.11,2.82,1.19Z"/>
      <path d="M24.63,53.63c-.84.38-2.19.1-2.48-.83-.63-2.03,2.39-.6,2.48.83ZM23.69,53.23c0-.52-.55-.84-1.05-.96,0,.52.55.84,1.05.96Z"/>
      <path d="M23.68,60.74c.15.86-.76,1.7-1.51,1.88-.88.22-1.46-.05-.94-1,.42-.78,1.67-.66,2.45-.88ZM22.9,61.18c-.26-.19-1.47.97-1.23,1.1.49-.14,1.82-.67,1.23-1.1Z"/>
      <path d="M54.08,30.95c-.48.94-2.09-2.1-.94-2.7,1.38-.72,1.32,1.95.94,2.7Z"/>
      <path d="M51.02,31.54c-.4-.35-1.47-2.42-.67-2.76,2.05-.2,1.42,3.42.67,2.76ZM51.41,30.6c-.03-.53-.18-.97-.77-1.01.03.53.18.97.77,1.01Z"/>
      <path d="M47.32,34.84c-.49.16-1.57.19-1.92-.2-.21-.23-.47-1.27-.4-1.37.5-.74,2.52.6,2.32,1.58ZM46.66,34.39l-.99-.67c.02.56.5.86.99.67Z"/>
      <path d="M48.5,30.61c.29.13,2,2.85-.03,2.01s-.98-2.46.03-2.01ZM48.35,31.18s-.37.09-.55.11c-.19.28.66.96,1.05.95-.04-.22-.4-.99-.49-1.06Z"/>
      <path d="M49.09,56.17l-2.07,1.26c-.53-1.4,1.19-1.39,2.07-1.26Z"/>
      <rect x="50.8" y="56.57" width=".63" height="1.21" transform="translate(-20.21 28.98) rotate(-26.63)"/>
      <path d="M50.41,57.07s.21.61.44.78c-.51.19-.98-.13-.99-.67.18-.02.52-.13.55-.11Z"/>
      <path d="M49.84,58.62c-.58-.04-.74-.47-.77-1.01.58.04.74.47.77,1.01Z"/>
      <path d="M47.06,59.16l.02.86c-.34-.2-.59-.32-.58-.75l.56-.11Z"/>
      <path d="M48.28,59.5l-.56.11-.16-.84c.08-.16.83.35.71.73Z"/>
      <path d="M49.06,59.06l-.56.11-.16-.84c.08-.16.83.35.71.73Z"/>
      <path d="M45.6,60.59l-.56.11-.16-.84c.08-.16.83.35.71.73Z"/>
      <path d="M32.48,46.35c.3.97.42,2.75-.91,2.78-.24-1.36-.99-2.7.91-2.78Z"/>
      <path d="M29.61,46.64c.21.09.55,1.04.55,1.38,0,.22-.23,1.63-.68,1.5-1.18-.34-1.53-3.57.13-2.88ZM29.73,48.61c-.07-.56-.15-1.24-.82-1.29.07.56.15,1.24.82,1.29Z"/>
      <path d="M46.11,79.84l-.56.11-.16-.84c.08-.16.83.35.71.73Z"/>
      <path d="M34.42,67.06c-.07-1.03-.16-2.33.91-2.77.14.11-.31,2.64-.91,2.77Z"/>
      <path d="M34.22,64.5c.27.21-.37,2.04-1.07,1.93.17-.41.32-.85.5-1.25.07-.15.01-1.13.58-.69Z"/>
      <rect x="37.41" y="66.78" width="1.62" height=".48" transform="translate(-34.22 93.56) rotate(-80.42)"/>
      <path d="M37.14,67.69c-.14-.12,0-1.34.34-1.22.34.48-.17,1.36-.34,1.22Z"/>
      <path d="M36.87,66.3l-.56.11c-.17-.4.01-.6.26-.91l.3.81Z"/>
      <path d="M41.76,67.68l-.56.11c-.17-.4.01-.6.26-.91l.3.81Z"/>
      <path d="M71.87,19.75c-.23-.62.02-1.21.57-1.55.25.32-.38,1.71-.57,1.55Z"/>
      <path d="M60.77,29.67c.74.9-.55,2.56-1.38,2.57-.52,0-.38-.38-.33-.7.15-1.03.55-1.86,1.71-1.87ZM59.7,31.61c.42-.29.81-.79.62-1.27-.42.29-.81.79-.62,1.27Z"/>
    </g>
  </g>
  <g>
    <path d="M1058.27,35.73c12.04,1.95,21.83,11.12,25.25,22.73.29.98,1.1,5.55,1.26,5.8.08.13.96.45,1.39.97.91,1.11,1.62,5.1,1.43,6.5-.32,2.34-3.07,2.22-3.79,3.1s-.43,2.71-.58,3.77c-2.3,16.02-4.1,32.17-6.09,48.23-.66,5.3-1.03,17.19-2.75,21.51-.95,2.4-.65,2.03-.9,4.53-.27,2.73-5.23,4.1-7.61,4.71-8.12,2.08-29.86,2.76-36.55-2.57-2.35-1.87-1.03-3.12-1.55-5.33-.22-.93-1.46-2.08-1.34-3.36-2.83-22.44-5.22-44.97-8.33-67.35-.15-1.08.04-3.24-.57-4.14-.52-.75-3.44-.72-3.79-3.09-.18-1.22.4-4.42.88-5.6.46-1.11,1.62-1.62,1.91-2.43.46-1.3.61-3.24,1.07-4.72,4.55-14.61,16.79-23.86,32.15-24.37.74-.02,2.29.63,2.68.36.58-.4,1.74-12.15,2.28-13.83.61-1.73,1.6-3.07,3-4.24,6.91-3.85,13.58-8.32,20.57-12.02,1.51-.8,2.98-2.05,4.39-.63,1.55,1.56,2.41,3.59.33,4.99-5.87,3.95-13.09,7.09-19.2,10.85-1.79,1.1-3.07,1.38-3.64,3.6-.96,3.72-1.08,8.23-1.91,12.04ZM1056.05,40.38c1.07-5.49,1.41-11.23,2.69-16.68.69-2.95,1.33-3.03,3.77-4.56,6.3-3.94,13.33-7.16,19.65-11.13,1.26-.36-.03-2.49-.7-2.9-.5-.31-.58,0-.92.18-4.52,2.38-9.39,5.31-13.82,7.92-2.07,1.23-4.39,2.48-6.38,3.75-2.11,1.35-3.4,1.96-4.13,4.56-1.56,5.55-1.53,12.34-3,18.01v1.26c.97.06,1.96.01,2.85-.41ZM1052.12,36.09c-3.9.25-7.89.27-11.59,1.63,2.13,3.44,7.61,3,11.22,3.08l.36-4.71ZM1060.8,37.54l-2.9-.37-.36,2.9c1.58-.13,2.71-1.06,3.26-2.53ZM1040.16,37.9c-9.39,2.43-17.35,10.4-20.55,19.46-.48,1.35-2.13,7.18-1.86,8.17.35,1.25,4.41,2.34,5.67,2.68,5.53,1.49,11.25,1.91,16.92,2.27,1.18.08,5.94.97,6.54.03l4.5-28.27c-2.96.06-6.36-.08-9.16-1.16-1.57-.61-2.86-1.37-2.07-3.18ZM1052.48,70.85c5.92.03,12.01-.28,17.88-1.13,2.77-.4,6.36-1.02,9-1.86.93-.29,4-1.42,4.22-2.32.11-.44-.66-4.05-.85-4.83-2.01-8.26-7.41-15.77-14.79-19.97-1.98-1.13-4.12-1.97-6.22-2.83-.36.29-.09,1.04-.24,1.56-.51,1.76-3.77,1.67-4.21,2.67l-4.77,28.72ZM1048.13,70.85c.87-.1,2.9.41,3.21-.59l4.39-28.38c-.91.54-1.86.32-2.87.39l-4.73,28.58ZM1016.45,66.15c-.62-.02-1.71,5.02-.93,6,.52.65,3.01,1.55,3.93,1.87,15.19,5.21,46.65,5.22,61.92.19,1.29-.43,4.6-1.41,4.8-2.82.11-.74-.65-5.25-1.28-5.23-1.95,2.44-5.23,3.11-8.14,3.8-14.31,3.41-37.85,3.37-52.16,0-2.94-.69-6.19-1.3-8.14-3.8ZM1082.17,75.56c-3.81.87-7.57,1.92-11.45,2.49-13.39,1.96-31.13,1.84-44.39-.78-2.13-.42-4.21-1.22-6.33-1.64-.31-.06-.85-.25-.83.11.68,3.78.96,7.69,1.51,11.52.68,2.07,11.66,3.89,13.92,4.19,11.86,1.58,28.86,1.65,40.42-1.51,1.27-.35,5.25-1.46,5.64-2.68l1.52-11.7ZM1080.36,89.32c-3.82,2.06-8.59,2.97-12.89,3.58-9.25,1.32-18.61,1.24-27.84.4-6.3-.57-12.92-1.02-18.65-3.98l7.61,58.83c.75.47,1.46.98,2.27,1.35,8.58,3.89,28.62,3.76,37.54.83,1.72-.57,4.78-1.64,5.06-3.63.51-3.55.68-7.25,1.13-10.81,1.99-15.51,3.97-31.03,5.76-46.56ZM1072.03,150.52c-1.68.5-3.28,1.27-4.99,1.71-9.16,2.34-28.15,2.57-36.74-1.44-.32-.15-.58-.36-.82-.63-.85,3.22.26,3.95,2.98,4.99,9.05,3.46,27.7,3.61,36.67-.1,2.52-1.04,3.29-1.5,2.9-4.52Z"/>
    <rect x="1027.02" y="94.91" width="1.04" height="49.7" transform="translate(-6.92 128.5) rotate(-7.13)"/>
    <rect x="1051.89" y="118.79" width="43.79" height="1.11" transform="translate(826.64 1171.09) rotate(-83.12)"/>
    <path d="M1044.87,59.63c.48.41.06.69-.54.72-8.25.42-16.46,1.11-24.45,3.26l2.53-1.27c2.58-1.11,21.5-3.52,22.45-2.71Z"/>
    <path d="M1081.08,63.25s.13.76-.18.72c-.69-.44-1.57-.68-2.36-.9-6.82-1.93-14.13-2.37-21.19-2.71-.59-.03-1.01-.32-.54-.72.61-.52,7.5.67,8.87.36,4.2.68,8.48,1.05,12.57,2.28.46.14,2.65.84,2.82.99Z"/>
  </g>
</svg>